<?xml version="1.0" standalone="no"?>
<!DOCTYPE svg PUBLIC "-//W3C//DTD SVG 1.1//EN" "http://www.w3.org/Graphics/SVG/1.1/DTD/svg11.dtd" >
<!--
Created with mf2outline.
-->
<svg>
<metadata>
Created by FontForge 20120731 at Wed Nov 22 15:41:54 2017
 By app
Copyright (c) 2017, Metaflop (http://www.metaflop.com), Simon Egli, Marco Mueller, Alexis Reigel, with Reserved Font Name Bespoke. Dual licensed under the GPL v3 (http://www.gnu.org/copyleft/gpl.html) and the OFL v1.1 (http://scripts.sil.org/OFL_web).
</metadata>
<defs>
<font id="Bespoke-BNi7wWnSfh" horiz-adv-x="665" >
  <font-face 
    font-family="Bespoke"
    font-weight="5"
    font-stretch="normal"
    units-per-em="1000"
    panose-1="2 0 6 3 0 0 0 0 0 0"
    ascent="800"
    descent="-200"
    x-height="585"
    cap-height="900"
    bbox="-139 -327 1295 1188"
    underline-thickness="50"
    underline-position="-100"
    unicode-range="U+0020-FB04"
  />
    <missing-glyph />
    <glyph glyph-name="emdash" unicode="&#x2013;&#x2d;" horiz-adv-x="1148" 
d="M42 248v89h1064v-89h-1064z" />
    <glyph glyph-name="questiondown" unicode="&#x3f;&#x2018;" horiz-adv-x="602" 
d="M293 366h99v-231h-50c-42 0 -82 -18 -110 -50c-30 -35 -43 -81 -43 -127s13 -93 43 -128c28 -32 68 -50 110 -50c46 0 90 22 117 58l75 -62c-45 -55 -118 -86 -192 -86c-68 0 -134 25 -181 75c-49 52 -71 122 -71 193s22 140 71 192c35 38 82 61 132 70v146zM278 566
c0 37 27 64 64 64s65 -27 65 -64s-28 -65 -65 -65s-64 28 -64 65z" />
    <glyph glyph-name="fi" unicode="fi" horiz-adv-x="658" 
d="M39 495v90h110v142c0 61 18 123 59 168c39 43 95 65 153 65s115 -22 154 -65c22 -24 37 -52 47 -82l-94 -30c-14 46 -54 87 -107 87c-32 0 -62 -15 -82 -40c-23 -29 -31 -66 -31 -103v-142h326v-585h-99v495h-227v-495h-99v495h-110z" />
    <glyph glyph-name="guillemotright" unicode="&#x3e;&#x3e;" horiz-adv-x="658" 
d="M329 292l-158 -292h-109l158 292l-158 293h109zM596 292l-158 -292h-109l159 292l-159 293h109z" />
    <glyph glyph-name="quotedblleft" unicode="&#x2018;&#x2018;" horiz-adv-x="644" 
d="M92 608l129 292h76l-102 -292h-103zM462 900h77l-102 -292h-103z" />
    <glyph glyph-name="endash" unicode="&#x2d;&#x2d;" horiz-adv-x="658" 
d="M42 248v89h575v-89h-575z" />
    <glyph glyph-name="exclamdown" unicode="&#x21;&#x2018;" horiz-adv-x="407" 
d="M154 -300v666h100v-666h-100zM140 566c0 37 27 64 64 64s64 -27 64 -64s-27 -65 -64 -65s-64 28 -64 65z" />
    <glyph glyph-name="quotedblright" unicode="&#x2019;&#x2019;" horiz-adv-x="644" 
d="M106 608l102 292h103l-129 -292h-76zM449 900h103l-129 -292h-76z" />
    <glyph glyph-name="fl" unicode="fl" horiz-adv-x="693" 
d="M39 495v90h110v214c0 43 13 85 43 116c29 30 70 45 112 45c36 0 70 -11 98 -33l-60 -75c-10 11 -23 18 -38 18c-36 0 -56 -36 -56 -71v-214h111v-90h-111v-495h-99v495h-110zM510 0v950h99v-950h-99z" />
    <glyph glyph-name="guillemotleft" unicode="&#x3c;&#x3c;" horiz-adv-x="658" 
d="M171 292l158 -292h-109l-158 292l158 293h109zM438 292l158 -292h-108l-159 292l159 293h108z" />
    <glyph glyph-name="V" unicode="V" horiz-adv-x="736" 
d="M12 900h105l254 -748l255 748h99l-307 -900h-100z" />
    <glyph glyph-name="quoteleft" unicode="&#x2018;" horiz-adv-x="357" 
d="M196 900h76l-103 -292h-103z" />
    <glyph glyph-name="lcaron" unicode="&#x13e;" horiz-adv-x="267" 
d="M84 0v950h99v-950h-99zM337 950h103l-130 -292h-76z" />
    <glyph glyph-name="M" unicode="M" horiz-adv-x="1085" 
d="M98 0v900h100l344 -777l344 777h100v-900h-99v667l-295 -667h-100l-295 667v-667h-99z" />
    <glyph glyph-name="scaron" unicode="&#x161;" horiz-adv-x="560" 
d="M366 892h91l-116 -180h-122l-116 180h91l86 -105zM280 -10c-61 0 -122 14 -171 50c-29 22 -51 52 -61 86l95 27c12 -52 79 -73 137 -73c63 0 139 21 139 87c0 34 -25 61 -59 67l-130 32c-84 14 -156 73 -156 155c0 49 17 97 54 128c42 35 97 46 152 46
c54 0 108 -14 149 -49c25 -21 42 -49 51 -80l-95 -27c-11 42 -57 66 -105 66c-28 0 -57 -5 -79 -22c-19 -15 -28 -38 -28 -62c0 -36 34 -60 72 -66l130 -31c80 -13 143 -77 143 -157c0 -51 -22 -100 -63 -130c-50 -37 -113 -47 -175 -47z" />
    <glyph glyph-name="equal" unicode="=" horiz-adv-x="686" 
d="M56 364v90h575v-90h-575zM56 130v90h575v-90h-575z" />
    <glyph glyph-name="braceright" unicode="}" horiz-adv-x="427" 
d="M168 156c0 65 23 132 68 174c-45 42 -68 109 -68 174v174c0 90 -83 162 -155 198l40 80c100 -50 214 -152 214 -278v-174c0 -62 35 -124 98 -124v-100c-63 0 -98 -62 -98 -124v-174c0 -125 -114 -228 -214 -278l-40 80c72 36 155 108 155 198v174z" />
    <glyph glyph-name="idieresis" unicode="&#xef;" horiz-adv-x="266" 
d="M83 0v585h99v-585h-99zM-60 780c0 38 29 67 67 67s67 -29 67 -67s-29 -67 -67 -67s-67 29 -67 67zM191 780c0 38 29 67 67 67s67 -29 67 -67s-29 -67 -67 -67s-67 29 -67 67z" />
    <glyph glyph-name="germandbls" unicode="&#xdf;" horiz-adv-x="693" 
d="M404 80c84 0 120 104 120 185c0 49 -15 97 -48 133c-31 34 -77 52 -123 52h-59v90h59c67 0 99 75 99 140c0 37 -11 74 -37 101c-25 26 -61 39 -97 39s-72 -13 -97 -39c-26 -27 -38 -64 -38 -101v-680h-99v680c0 62 22 123 66 166c44 44 106 64 168 64s124 -20 168 -64
c44 -43 65 -104 65 -166c0 -64 -19 -129 -62 -173c21 -12 41 -26 58 -44c51 -52 76 -125 76 -198c0 -71 -17 -142 -61 -198c-38 -48 -97 -77 -158 -77c-65 0 -126 28 -168 77c-15 18 -28 38 -38 59l89 41c20 -46 62 -87 117 -87z" />
    <glyph glyph-name="gbreve" unicode="&#x11f;" horiz-adv-x="714" 
d="M343 595c79 0 149 -45 189 -107v97h99v-619c0 -74 -27 -147 -81 -199c-55 -53 -131 -77 -207 -77s-151 24 -206 77c-24 23 -42 50 -55 79l89 40c9 -20 21 -38 37 -54c36 -35 85 -52 135 -52s100 17 136 52c35 35 53 84 53 134v141c-40 -62 -110 -107 -189 -107
c-77 0 -152 27 -206 83c-55 57 -81 136 -81 215s26 157 81 214c54 56 129 83 206 83zM343 797c52 0 118 24 118 78h79c0 -44 -20 -86 -55 -114c-40 -32 -91 -44 -142 -44s-101 12 -141 44c-35 28 -55 70 -55 114h79c0 -54 65 -78 117 -78zM343 505c-51 0 -101 -20 -135 -58
c-37 -40 -53 -94 -53 -149s16 -110 53 -150c34 -38 84 -58 135 -58s102 20 136 58c37 40 53 95 53 150s-16 109 -53 149c-34 38 -85 58 -136 58z" />
    <glyph glyph-name="eacute" unicode="&#xe9;" horiz-adv-x="693" 
d="M608 117c-12 -20 -28 -38 -46 -54c-58 -51 -135 -73 -212 -73c-79 0 -156 28 -211 85c-56 58 -83 136 -83 217s27 160 83 218c55 57 132 85 211 85s157 -28 212 -85c56 -58 83 -137 83 -218v-44h-486c7 -40 23 -78 51 -108c36 -39 87 -60 140 -60c51 0 102 14 141 48
c13 12 24 25 33 40zM403 892h124l-152 -180h-91zM542 337c-7 40 -23 78 -51 108c-36 39 -88 60 -141 60s-104 -21 -140 -60c-28 -30 -44 -68 -51 -108h383z" />
    <glyph glyph-name="i" unicode="i" horiz-adv-x="266" 
d="M83 0v585h99v-585h-99zM66 780c0 38 29 67 67 67s66 -29 66 -67s-28 -67 -66 -67s-67 29 -67 67z" />
    <glyph glyph-name="Racute" unicode="&#x154;" horiz-adv-x="707" 
d="M98 0v900h269c80 0 160 -23 220 -76c56 -49 86 -120 86 -194s-30 -145 -86 -194c-29 -26 -62 -45 -98 -57l212 -379h-117l-194 361c-8 0 -15 -1 -23 -1h-170v-360h-99zM375 1147h124l-151 -180h-92zM197 810v-360h170c54 0 108 14 149 50c37 32 58 80 58 130
s-21 98 -58 130c-41 36 -95 50 -149 50h-170z" />
    <glyph glyph-name="uhungarumlaut" unicode="&#x171;" 
d="M481 67c-35 -47 -92 -77 -153 -77c-67 0 -133 22 -181 68c-47 45 -71 109 -71 174v353h99v-353c0 -41 14 -81 43 -110s69 -42 110 -42s82 13 111 42s42 69 42 110v353h99v-585h-99v67zM158 712l110 180h121l-141 -180h-90zM477 892h120l-141 -180h-89z" />
    <glyph glyph-name="h" unicode="h" horiz-adv-x="637" 
d="M189 515c37 49 98 80 163 80c57 0 113 -25 150 -68c41 -48 58 -111 58 -174v-353h-99v353c0 71 -35 152 -109 152c-43 0 -85 -13 -117 -42c-30 -28 -46 -69 -46 -110v-353h-99v950h99v-435z" />
    <glyph glyph-name="uring" unicode="&#x16f;" 
d="M481 67c-35 -47 -92 -77 -153 -77c-67 0 -133 22 -181 68c-47 45 -71 109 -71 174v353h99v-353c0 -41 14 -81 43 -110s69 -42 110 -42s82 13 111 42s42 69 42 110v353h99v-585h-99v67zM328 922c34 0 68 -10 92 -33c24 -22 35 -55 35 -87s-11 -64 -35 -86
c-24 -23 -58 -34 -92 -34s-67 11 -91 34c-24 22 -36 54 -36 86s12 65 36 87c24 23 57 33 91 33zM328 862c-34 0 -61 -25 -61 -60c0 -34 27 -60 61 -60s61 25 61 60c0 34 -27 60 -61 60z" />
    <glyph glyph-name="ring" unicode="&#x2da;" horiz-adv-x="294" 
d="M147 930c34 0 67 -11 91 -34c24 -22 36 -54 36 -86s-12 -64 -36 -86c-24 -23 -57 -34 -91 -34s-68 11 -92 34c-24 22 -35 54 -35 86s11 64 35 86c24 23 58 34 92 34zM147 870c-34 0 -61 -25 -61 -60c0 -34 27 -60 61 -60s61 25 61 60c0 34 -27 60 -61 60z" />
    <glyph glyph-name="nine" unicode="9" horiz-adv-x="686" 
d="M526 441c-40 -61 -112 -103 -190 -103c-77 0 -152 26 -207 80c-54 54 -81 129 -81 206s27 152 81 206c55 54 130 80 207 80s153 -26 208 -80c54 -54 81 -129 81 -206v-325c0 -82 -25 -163 -81 -223c-53 -57 -130 -86 -208 -86s-154 29 -207 86c-25 27 -44 59 -57 92
l91 36c9 -23 21 -44 37 -63c34 -39 84 -61 136 -61s103 22 137 61c37 43 53 101 53 158v142zM336 820c-51 0 -101 -18 -136 -55c-36 -38 -53 -89 -53 -141s17 -104 53 -142c35 -37 85 -54 136 -54s102 17 137 54c36 38 53 90 53 142s-17 103 -53 141c-35 37 -86 55 -137 55z
" />
    <glyph glyph-name="J" unicode="J" horiz-adv-x="616" 
d="M526 900v-640c0 -72 -24 -143 -75 -194s-123 -76 -195 -76s-144 25 -195 76c-14 14 -26 29 -36 46l84 51c28 -49 84 -83 147 -83c46 0 91 17 123 51c33 35 48 81 48 129v640h99z" />
    <glyph glyph-name="Lslash" unicode="&#x141;" horiz-adv-x="658" 
d="M617 0h-505v318l-84 -54v102l84 54v480h99v-416l237 152v-102l-237 -153v-291h406v-90z" />
    <glyph glyph-name="agrave" unicode="&#xe0;" horiz-adv-x="658" 
d="M315 364c60 0 120 -20 160 -61v61c0 39 -15 77 -44 102c-32 28 -74 39 -116 39s-83 -11 -115 -39c-14 -12 -24 -28 -32 -44l-89 44c12 24 29 46 50 64c51 45 118 65 186 65s136 -20 187 -65c47 -42 72 -103 72 -166v-364h-99v51c-40 -41 -100 -61 -160 -61
c-66 0 -132 13 -186 52c-44 32 -73 81 -73 135s29 103 73 135c54 39 120 52 186 52zM138 892h124l120 -180h-92zM315 274c-68 0 -160 -26 -160 -97s92 -97 160 -97s160 26 160 97s-92 97 -160 97z" />
    <glyph glyph-name="asterisk" unicode="*" horiz-adv-x="651" 
d="M276 900h99v-173l149 61v-109l-124 -50l124 -179h-117l-82 118l-82 -118h-117l124 179l-124 50v109l150 -61v173z" />
    <glyph glyph-name="Dcaron" unicode="&#x10e;" horiz-adv-x="882" 
d="M98 0v900h280c117 0 231 -42 312 -126c83 -86 121 -204 121 -324s-38 -238 -121 -324c-81 -84 -195 -126 -312 -126h-280zM464 1147h91l-116 -180h-122l-116 180h91l86 -105zM197 90h181c91 0 179 34 241 101c65 70 93 164 93 259s-28 189 -93 259
c-62 67 -150 101 -241 101h-181v-720z" />
    <glyph glyph-name="Gbreve" unicode="&#x11e;" horiz-adv-x="1001" 
d="M918 0h-99v174c-15 -28 -35 -53 -57 -76c-71 -73 -170 -108 -272 -108c-116 0 -229 44 -308 129c-83 89 -120 209 -120 331s37 242 120 331c79 85 192 129 308 129s229 -44 308 -129c25 -27 46 -56 63 -88l-87 -46c-13 25 -28 48 -47 69c-60 67 -147 104 -237 104
s-177 -37 -237 -104c-65 -73 -92 -169 -92 -266s27 -193 92 -266c60 -67 147 -104 237 -104c87 0 173 25 237 83c60 54 92 132 92 213v29h-329v90h428v-495zM490 1052c52 0 117 24 117 78h80c0 -44 -20 -85 -55 -113c-40 -32 -91 -45 -142 -45s-102 13 -142 45
c-35 28 -55 69 -55 113h79c0 -54 66 -78 118 -78z" />
    <glyph glyph-name="lacute" unicode="&#x13a;" horiz-adv-x="267" 
d="M84 0v950h99v-950h-99zM202 1188h124l-152 -180h-92z" />
    <glyph glyph-name="Ecaron" unicode="&#x11a;" horiz-adv-x="651" 
d="M98 0v900h504v-90h-405v-315h356v-90h-356v-315h405v-90h-504zM436 1147h91l-115 -180h-123l-115 180h90l86 -105z" />
    <glyph glyph-name="Cacute" unicode="&#x106;" horiz-adv-x="945" 
d="M881 250c-19 -48 -47 -92 -83 -131c-79 -85 -192 -129 -308 -129s-229 44 -308 129c-83 89 -120 209 -120 331s37 242 120 331c79 85 192 129 308 129s229 -44 308 -129c36 -39 64 -83 83 -131l-92 -37c-15 38 -35 72 -62 103c-60 67 -147 104 -237 104
s-177 -37 -237 -104c-65 -73 -92 -169 -92 -266s27 -193 92 -266c60 -67 147 -104 237 -104s177 37 237 104c27 31 47 65 62 103zM543 1147h124l-152 -180h-92z" />
    <glyph glyph-name="Rcaron" unicode="&#x158;" horiz-adv-x="707" 
d="M98 0v900h269c80 0 160 -23 220 -76c56 -49 86 -120 86 -194s-30 -145 -86 -194c-29 -26 -62 -45 -98 -57l212 -379h-117l-194 361c-8 0 -15 -1 -23 -1h-170v-360h-99zM408 1147h91l-115 -180h-123l-115 180h91l85 -105zM197 810v-360h170c54 0 108 14 149 50
c37 32 58 80 58 130s-21 98 -58 130c-41 36 -95 50 -149 50h-170z" />
    <glyph glyph-name="period" unicode="." horiz-adv-x="323" 
d="M97 64c0 37 28 65 65 65s64 -28 64 -65s-27 -64 -64 -64s-65 27 -65 64z" />
    <glyph glyph-name="Idieresis" unicode="&#xcf;" horiz-adv-x="323" 
d="M112 0v900h99v-900h-99zM-31 1036c0 38 29 66 67 66s67 -28 67 -66s-29 -67 -67 -67s-67 29 -67 67zM220 1036c0 38 29 66 67 66s67 -28 67 -66s-29 -67 -67 -67s-67 29 -67 67z" />
    <glyph glyph-name="underscore" unicode="_" horiz-adv-x="658" 
d="M42 -165v90h575v-90h-575z" />
    <glyph glyph-name="Ugrave" unicode="&#xd9;" horiz-adv-x="832" 
d="M737 900v-599c0 -84 -30 -166 -90 -224c-61 -60 -145 -87 -231 -87s-171 27 -232 87c-60 58 -90 140 -90 224v599h99v-599c0 -59 21 -117 63 -159s100 -62 160 -62s118 20 160 62s62 100 62 159v599h99zM239 1147h124l119 -180h-91z" />
    <glyph glyph-name="X" unicode="X" horiz-adv-x="693" 
d="M30 900h115l203 -338l205 338h109l-260 -429l283 -471h-115l-225 376l-227 -376h-110l282 467z" />
    <glyph glyph-name="Sacute" unicode="&#x15a;" horiz-adv-x="728" 
d="M527 714c-22 63 -91 106 -166 106c-47 0 -94 -11 -128 -43c-33 -30 -46 -74 -46 -119c0 -64 53 -114 117 -132l184 -54c103 -29 179 -117 179 -223c0 -72 -26 -143 -81 -190c-62 -52 -144 -69 -225 -69c-80 0 -158 22 -219 73c-34 29 -59 65 -73 106l94 32
c9 -29 26 -55 50 -74c41 -34 94 -47 148 -47s110 11 152 45c37 30 55 76 55 124c0 63 -44 116 -105 133l-184 54c-106 30 -191 115 -191 222c0 69 21 138 72 185c54 50 128 67 201 67c72 0 145 -22 198 -71c28 -26 48 -58 61 -94zM414 1147h124l-152 -180h-91z" />
    <glyph glyph-name="visiblespace" unicode="&#x2420;" horiz-adv-x="560" 
d="M28 0h99v-75h306v75h99v-165h-504v165z" />
    <glyph glyph-name="j" unicode="j" horiz-adv-x="294" 
d="M92 780c0 38 29 67 67 67s67 -29 67 -67s-29 -67 -67 -67s-67 29 -67 67zM27 -310c-50 0 -98 19 -131 56c-15 17 -27 36 -35 57l91 36c11 -31 39 -59 75 -59c55 0 83 57 83 110v695h99v-695c0 -53 -16 -105 -51 -144c-33 -37 -81 -56 -131 -56z" />
    <glyph glyph-name="AE" unicode="&#xc6;" horiz-adv-x="1127" 
d="M14 0l489 900h575v-90h-426v-315h375v-90h-375v-315h426v-90h-525v292h-278l-159 -292h-102zM324 382h229v421z" />
    <glyph glyph-name="Ucircumflex" unicode="&#xdb;" horiz-adv-x="832" 
d="M737 900v-599c0 -84 -30 -166 -90 -224c-61 -60 -145 -87 -231 -87s-171 27 -232 87c-60 58 -90 140 -90 224v599h99v-599c0 -59 21 -117 63 -159s100 -62 160 -62s118 20 160 62s62 100 62 159v599h99zM416 1073l-86 -106h-91l115 180h123l115 -180h-90z" />
    <glyph glyph-name="oe" unicode="&#x153;" horiz-adv-x="1106" 
d="M784 80c65 0 129 34 155 86l85 -49c-11 -20 -25 -38 -42 -54c-53 -50 -125 -73 -198 -73c-75 0 -147 30 -197 85c-10 11 -19 23 -27 35c-8 -12 -17 -24 -27 -35c-50 -55 -122 -85 -197 -85s-147 30 -197 85c-53 59 -77 137 -77 217s24 159 77 218c50 55 122 85 197 85
s147 -30 197 -85c10 -11 19 -23 27 -35c8 12 17 24 27 35c50 55 122 85 197 85s148 -30 198 -85c53 -59 76 -138 76 -218v-44h-445c6 -39 21 -77 46 -108c31 -38 76 -60 125 -60zM336 505c-49 0 -95 -22 -126 -60c-35 -43 -49 -98 -49 -153s14 -109 49 -152
c31 -38 77 -60 126 -60s95 22 126 60c35 43 49 97 49 152s-14 110 -49 153c-31 38 -77 60 -126 60zM956 337c-6 39 -21 77 -46 108c-31 38 -77 60 -126 60s-94 -22 -125 -60c-25 -31 -40 -69 -46 -108h343z" />
    <glyph glyph-name="dollar" unicode="$" horiz-adv-x="728" 
d="M69 169l94 32c9 -29 26 -55 50 -74c41 -34 94 -47 148 -47s110 11 152 45c37 30 55 76 55 124c0 63 -44 116 -105 133l-184 54c-106 30 -191 115 -191 222c0 69 21 138 72 185c42 38 96 57 152 64v173h99v-174c55 -8 107 -29 148 -67c28 -26 48 -58 61 -94l-93 -33
c-8 24 -21 45 -40 62c-34 31 -80 46 -126 46c-47 0 -94 -11 -128 -43c-33 -30 -46 -74 -46 -119c0 -64 53 -114 117 -132l184 -54c103 -29 179 -117 179 -223c0 -72 -26 -143 -81 -190c-49 -42 -111 -61 -175 -67v-172h-99v173c-62 7 -122 29 -170 70c-34 29 -59 65 -73 106
z" />
    <glyph glyph-name="dash" horiz-adv-x="441" 
d="M56 248v89h330v-89h-330z" />
    <glyph glyph-name="odieresis" unicode="&#xf6;" horiz-adv-x="700" 
d="M158 780c0 38 29 67 67 67s67 -29 67 -67s-29 -67 -67 -67s-67 29 -67 67zM409 780c0 38 29 67 67 67s67 -29 67 -67s-29 -67 -67 -67s-67 29 -67 67zM350 505c-53 0 -104 -21 -140 -60c-38 -41 -55 -97 -55 -153s17 -111 55 -152c36 -39 87 -60 140 -60s105 21 141 60
c38 41 55 96 55 152s-17 112 -55 153c-36 39 -88 60 -141 60zM350 595c79 0 157 -28 212 -85c56 -58 83 -137 83 -218s-27 -159 -83 -217c-55 -57 -133 -85 -212 -85s-156 28 -211 85c-56 58 -83 136 -83 217s27 160 83 218c55 57 132 85 211 85z" />
    <glyph glyph-name="l" unicode="l" horiz-adv-x="267" 
d="M84 0v950h99v-950h-99z" />
    <glyph glyph-name="G" unicode="G" horiz-adv-x="1001" 
d="M918 0h-99v174c-15 -28 -35 -53 -57 -76c-71 -73 -170 -108 -272 -108c-116 0 -229 44 -308 129c-83 89 -120 209 -120 331s37 242 120 331c79 85 192 129 308 129s229 -44 308 -129c25 -27 46 -56 63 -88l-87 -46c-13 25 -28 48 -47 69c-60 67 -147 104 -237 104
s-177 -37 -237 -104c-65 -73 -92 -169 -92 -266s27 -193 92 -266c60 -67 147 -104 237 -104c87 0 173 25 237 83c60 54 92 132 92 213v29h-329v90h428v-495z" />
    <glyph glyph-name="dotaccent" unicode="&#x2d9;" horiz-adv-x="252" 
d="M60 788c0 38 28 67 66 67s67 -29 67 -67s-29 -67 -67 -67s-66 29 -66 67z" />
    <glyph glyph-name="ncaron" unicode="&#x148;" 
d="M183 509c41 54 112 86 184 86c60 0 118 -24 159 -68c43 -47 62 -110 62 -174v-353h-99v353c0 39 -9 79 -34 110c-22 27 -54 42 -88 42c-48 0 -95 -12 -132 -42c-33 -27 -52 -68 -52 -110v-353h-99v585h99v-76zM422 892h91l-115 -180h-123l-115 180h90l86 -105z" />
    <glyph glyph-name="C" unicode="C" horiz-adv-x="945" 
d="M881 250c-19 -48 -47 -92 -83 -131c-79 -85 -192 -129 -308 -129s-229 44 -308 129c-83 89 -120 209 -120 331s37 242 120 331c79 85 192 129 308 129s229 -44 308 -129c36 -39 64 -83 83 -131l-92 -37c-15 38 -35 72 -62 103c-60 67 -147 104 -237 104
s-177 -37 -237 -104c-65 -73 -92 -169 -92 -266s27 -193 92 -266c60 -67 147 -104 237 -104s177 37 237 104c27 31 47 65 62 103z" />
    <glyph glyph-name="Ocircumflex" unicode="&#xd4;" horiz-adv-x="980" 
d="M490 820c-90 0 -177 -37 -237 -104c-65 -73 -92 -169 -92 -266s27 -193 92 -266c60 -67 147 -104 237 -104s177 37 237 104c65 73 92 169 92 266s-27 193 -92 266c-60 67 -147 104 -237 104zM490 910c116 0 229 -44 308 -129c83 -89 120 -209 120 -331
s-37 -242 -120 -331c-79 -85 -192 -129 -308 -129s-229 44 -308 129c-83 89 -120 209 -120 331s37 242 120 331c79 85 192 129 308 129zM490 1073l-86 -106h-91l116 180h122l116 -180h-91z" />
    <glyph glyph-name="A" unicode="A" horiz-adv-x="777" 
d="M14 0l325 900h100l324 -900h-105l-86 239h-375l-86 -239h-97zM539 329l-155 429l-154 -429h309z" />
    <glyph glyph-name="aring" unicode="&#xe5;" horiz-adv-x="658" 
d="M315 364c60 0 120 -20 160 -61v61c0 39 -15 77 -44 102c-32 28 -74 39 -116 39s-83 -11 -115 -39c-14 -12 -24 -28 -32 -44l-89 44c12 24 29 46 50 64c51 45 118 65 186 65s136 -20 187 -65c47 -42 72 -103 72 -166v-364h-99v51c-40 -41 -100 -61 -160 -61
c-66 0 -132 13 -186 52c-44 32 -73 81 -73 135s29 103 73 135c54 39 120 52 186 52zM315 274c-68 0 -160 -26 -160 -97s92 -97 160 -97s160 26 160 97s-92 97 -160 97zM315 922c34 0 68 -10 92 -33c24 -22 35 -55 35 -87s-11 -64 -35 -86c-24 -23 -58 -34 -92 -34
s-67 11 -91 34c-24 22 -36 54 -36 86s12 65 36 87c24 23 57 33 91 33zM315 862c-34 0 -61 -25 -61 -60c0 -34 27 -60 61 -60s61 25 61 60c0 34 -27 60 -61 60z" />
    <glyph glyph-name="ampersand" unicode="&#x26;" horiz-adv-x="868" 
d="M651 755l-91 -38c-8 22 -21 41 -39 57c-35 32 -83 46 -130 46s-94 -14 -129 -46c-33 -30 -51 -72 -51 -116s18 -88 51 -118c35 -32 82 -45 129 -45h424v-90h-145v-405h-279c-73 0 -146 20 -201 69c-51 45 -78 111 -78 179s27 133 78 178c20 18 43 31 67 42
c-24 9 -47 21 -67 37c-48 37 -78 93 -78 153c0 69 27 135 78 181c54 49 128 71 201 71s147 -22 201 -71c26 -24 46 -52 59 -84zM571 405h-180c-47 0 -94 -13 -129 -44c-33 -28 -51 -70 -51 -113s18 -86 51 -114c35 -31 82 -44 129 -44h180v315z" />
    <glyph glyph-name="igrave" unicode="&#xec;" horiz-adv-x="266" 
d="M83 0v585h99v-585h-99zM-44 892h124l119 -180h-92z" />
    <glyph glyph-name="B" unicode="B" horiz-adv-x="735" 
d="M98 0v900h288c65 0 128 -21 174 -66c45 -44 68 -106 68 -170c0 -55 -25 -107 -68 -141c-14 -12 -30 -21 -47 -29c29 -12 56 -28 79 -49c53 -47 81 -115 81 -186s-28 -140 -81 -187c-56 -51 -130 -72 -206 -72h-288zM197 810v-292h189c39 0 76 13 103 40
c27 28 40 67 40 106s-13 77 -40 105c-27 27 -64 41 -103 41h-189zM197 428v-338h189c50 0 98 14 135 47c34 31 53 76 53 122s-19 90 -53 121c-37 33 -85 48 -135 48h-189z" />
    <glyph glyph-name="dotlessi" unicode="&#x131;" horiz-adv-x="266" 
d="M83 0v585h99v-585h-99z" />
    <glyph glyph-name="dotlessj" unicode="&#x237;" horiz-adv-x="294" 
d="M27 -310c-50 0 -98 19 -131 56c-15 17 -27 36 -35 57l91 36c11 -31 39 -59 75 -59c55 0 83 57 83 110v695h99v-695c0 -53 -16 -105 -51 -144c-33 -37 -81 -56 -131 -56z" />
    <glyph glyph-name="bar" unicode="|" horiz-adv-x="280" 
d="M90 -45v990h99v-990h-99z" />
    <glyph glyph-name="x" unicode="x" horiz-adv-x="567" 
d="M36 585h119l130 -191l131 191h114l-189 -274l211 -311h-118l-152 224l-155 -224h-113l211 307z" />
    <glyph glyph-name="tilde" unicode="&#x2dc;" horiz-adv-x="294" 
d="M84 770c-28 0 -55 -17 -55 -46h-79c0 34 12 68 37 91c26 24 61 35 97 35c44 0 81 -32 125 -32c28 0 55 17 55 46h79c0 -34 -12 -68 -37 -91c-26 -24 -61 -35 -97 -35c-44 0 -81 32 -125 32z" />
    <glyph glyph-name="five" unicode="5" horiz-adv-x="672" 
d="M166 179c27 -58 93 -99 163 -99c51 0 102 20 136 58c37 40 53 95 53 150c0 54 -13 107 -46 149c-29 36 -72 58 -118 58c-76 0 -143 -51 -163 -125h-99v530h475v-90h-376v-309c36 51 96 84 163 84c72 0 141 -29 189 -83c52 -58 74 -136 74 -214c0 -79 -26 -158 -81 -215
c-54 -56 -130 -83 -207 -83s-153 27 -207 83c-17 18 -30 38 -42 59z" />
    <glyph glyph-name="g" unicode="g" horiz-adv-x="714" 
d="M343 595c79 0 149 -45 189 -107v97h99v-619c0 -74 -27 -147 -81 -199c-55 -53 -131 -77 -207 -77s-151 24 -206 77c-24 23 -42 50 -55 79l89 40c9 -20 21 -38 37 -54c36 -35 85 -52 135 -52s100 17 136 52c35 35 53 84 53 134v141c-40 -62 -110 -107 -189 -107
c-77 0 -152 27 -206 83c-55 57 -81 136 -81 215s26 157 81 214c54 56 129 83 206 83zM343 505c-51 0 -101 -20 -135 -58c-37 -40 -53 -94 -53 -149s16 -110 53 -150c34 -38 84 -58 135 -58s102 20 136 58c37 40 53 95 53 150s-16 109 -53 149c-34 38 -85 58 -136 58z" />
    <glyph glyph-name="eight" unicode="8" horiz-adv-x="700" 
d="M350 80c50 0 100 15 137 49c35 32 53 78 53 125s-18 93 -53 125c-37 34 -87 48 -137 48s-99 -14 -136 -48c-35 -32 -53 -78 -53 -125s18 -93 53 -125c37 -34 86 -49 136 -49zM350 -10c-76 0 -151 23 -207 74c-53 48 -81 118 -81 190s28 142 81 190c24 22 51 38 81 50
c-17 8 -32 18 -47 30c-43 36 -67 89 -67 145c0 65 21 127 67 173s108 68 173 68s128 -22 174 -68s67 -108 67 -173c0 -56 -24 -109 -67 -145c-15 -12 -30 -22 -47 -30c30 -12 57 -28 81 -50c53 -48 81 -118 81 -190s-28 -142 -81 -190c-56 -51 -132 -74 -208 -74zM350 517
c38 0 76 15 102 43c27 29 40 69 40 109s-13 80 -40 109c-26 28 -64 42 -102 42s-76 -14 -102 -42c-27 -29 -39 -69 -39 -109s12 -80 39 -109c26 -28 64 -43 102 -43z" />
    <glyph glyph-name="acute" unicode="&#xb4;" horiz-adv-x="280" 
d="M143 900h124l-152 -180h-91z" />
    <glyph glyph-name="numbersign" unicode="#" horiz-adv-x="756" 
d="M28 270v90h154l31 180h-157v90h173l47 270h100l-48 -270h164l47 270h99l-47 -270h138v-90h-154l-31 -180h157v-90h-173l-47 -270h-100l48 270h-164l-47 -270h-99l47 270h-138zM445 360l31 180h-164l-31 -180h164z" />
    <glyph glyph-name="U" unicode="U" horiz-adv-x="832" 
d="M737 900v-599c0 -84 -30 -166 -90 -224c-61 -60 -145 -87 -231 -87s-171 27 -232 87c-60 58 -90 140 -90 224v599h99v-599c0 -59 21 -117 63 -159s100 -62 160 -62s118 20 160 62s62 100 62 159v599h99z" />
    <glyph glyph-name="percent" unicode="%" horiz-adv-x="1148" 
d="M211 -45l611 990h115l-611 -990h-115zM307 900c54 0 105 -22 140 -63c38 -44 54 -103 54 -162s-16 -118 -54 -162c-35 -41 -86 -63 -140 -63s-105 22 -140 63c-38 44 -55 103 -55 162s17 118 55 162c35 41 86 63 140 63zM307 810c-65 0 -96 -72 -96 -135s31 -135 96 -135
s95 72 95 135s-30 135 -95 135zM842 450c54 0 105 -22 140 -63c38 -44 54 -103 54 -162s-16 -118 -54 -162c-35 -41 -86 -63 -140 -63s-105 22 -140 63c-38 44 -55 103 -55 162s17 118 55 162c35 41 86 63 140 63zM842 360c-65 0 -96 -72 -96 -135s31 -135 96 -135
s95 72 95 135s-30 135 -95 135z" />
    <glyph glyph-name="iacute" unicode="&#xed;" horiz-adv-x="266" 
d="M83 0v585h99v-585h-99zM185 892h124l-151 -180h-92z" />
    <glyph glyph-name="Aogonek" unicode="&#x104;" horiz-adv-x="777" 
d="M14 0l325 900h100l324 -900h-8l-95 -108c-21 -27 -55 -47 -55 -82c0 -43 48 -65 90 -65c30 0 61 10 77 31l57 -52c-31 -34 -84 -51 -134 -51c-44 0 -88 11 -122 38c-30 24 -47 61 -47 99c0 66 68 103 108 154l32 36h-8l-86 239h-375l-86 -239h-97zM539 329l-155 429
l-154 -429h309z" />
    <glyph glyph-name="ogonek" unicode="&#x2db;" horiz-adv-x="280" 
d="M140 -327c-44 0 -88 11 -122 38c-30 24 -47 61 -47 99c0 66 68 103 108 154l95 108l26 -72l-95 -108c-21 -27 -55 -47 -55 -82c0 -43 48 -65 90 -65c30 0 61 10 77 31l57 -52c-31 -34 -84 -51 -134 -51z" />
    <glyph glyph-name="Germandbls" horiz-adv-x="1358" 
d="M69 169l94 32c9 -28 26 -55 49 -74c41 -34 93 -47 146 -47c54 0 108 11 149 45c36 30 54 77 54 124c0 62 -43 115 -103 133l-182 54c-104 31 -188 116 -188 222c0 69 21 138 72 185c53 49 125 67 198 67c72 0 143 -22 195 -71c28 -26 48 -59 61 -94l-93 -33
c-8 23 -21 45 -39 62c-33 31 -78 46 -124 46s-93 -11 -126 -43c-32 -30 -45 -75 -45 -119c0 -64 53 -113 116 -132l181 -54c101 -30 176 -118 176 -223c0 -72 -25 -143 -80 -190c-61 -52 -142 -69 -222 -69c-79 0 -157 22 -217 73c-34 29 -58 65 -72 106zM704 169l93 32
c9 -28 27 -55 50 -74c41 -34 93 -47 146 -47c54 0 108 11 149 45c36 30 54 77 54 124c0 62 -44 115 -104 133l-181 54c-104 31 -189 116 -189 222c0 69 21 138 72 185c53 49 126 67 199 67c72 0 143 -22 195 -71c28 -26 48 -59 61 -94l-93 -33c-8 23 -21 45 -39 62
c-33 31 -78 46 -124 46s-93 -11 -126 -43c-32 -30 -46 -75 -46 -119c0 -64 54 -113 117 -132l181 -54c101 -30 176 -118 176 -223c0 -72 -25 -143 -80 -190c-61 -52 -142 -69 -222 -69c-79 0 -157 22 -217 73c-34 29 -58 65 -72 106z" />
    <glyph glyph-name="ntilde" unicode="&#xf1;" 
d="M183 509c41 54 112 86 184 86c60 0 118 -24 159 -68c43 -47 62 -110 62 -174v-353h-99v353c0 39 -9 79 -34 110c-22 27 -54 42 -88 42c-48 0 -95 -12 -132 -42c-33 -27 -52 -68 -52 -110v-353h-99v585h99v-76zM274 763c-28 0 -55 -17 -55 -46h-79c0 34 12 67 37 90
c26 24 61 36 97 36c44 0 81 -33 125 -33c28 0 55 17 55 46h79c0 -34 -12 -68 -37 -91c-26 -24 -61 -35 -97 -35c-44 0 -81 33 -125 33z" />
    <glyph glyph-name="E" unicode="E" horiz-adv-x="651" 
d="M98 0v900h504v-90h-405v-315h356v-90h-356v-315h405v-90h-504z" />
    <glyph glyph-name="T" unicode="T" horiz-adv-x="644" 
d="M4 810v90h636v-90h-268v-810h-99v810h-269z" />
    <glyph glyph-name="quotedbl" unicode="&#x22;" horiz-adv-x="413" 
d="M42 900h99v-292h-99v292zM372 900v-292h-99v292h99z" />
    <glyph glyph-name="dieresis" unicode="&#xa8;" horiz-adv-x="294" 
d="M-46 788c0 38 29 67 67 67s67 -29 67 -67s-29 -67 -67 -67s-67 29 -67 67zM205 788c0 38 29 67 67 67s67 -29 67 -67s-29 -67 -67 -67s-67 29 -67 67z" />
    <glyph glyph-name="slash" unicode="/" horiz-adv-x="525" 
d="M28 -45l363 990h105l-363 -990h-105z" />
    <glyph glyph-name="Acircumflex" unicode="&#xc2;" horiz-adv-x="777" 
d="M14 0l325 900h100l324 -900h-105l-86 239h-375l-86 -239h-97zM539 329l-155 429l-154 -429h309zM389 1073l-86 -106h-91l115 180h123l115 -180h-91z" />
    <glyph glyph-name="Eng" unicode="&#x14a;" horiz-adv-x="875" 
d="M98 0v900h100l480 -727v727h99v-1010c0 -54 -20 -107 -59 -144c-41 -39 -98 -56 -154 -56s-112 17 -153 56c-17 16 -31 36 -41 57l90 41c16 -38 57 -64 104 -64c30 0 60 10 82 31c21 21 32 49 32 79v110h-1l-480 727v-727h-99z" />
    <glyph glyph-name="f" unicode="f" horiz-adv-x="413" 
d="M39 495v90h111v214c0 43 14 85 43 116c28 30 69 45 110 45c35 0 70 -11 97 -33l-61 -74c-9 11 -22 17 -36 17c-35 0 -54 -37 -54 -71v-214h112v-90h-112v-495h-99v495h-111z" />
    <glyph glyph-name="ecaron" unicode="&#x11b;" horiz-adv-x="693" 
d="M608 117c-12 -20 -28 -38 -46 -54c-58 -51 -135 -73 -212 -73c-79 0 -156 28 -211 85c-56 58 -83 136 -83 217s27 160 83 218c55 57 132 85 211 85s157 -28 212 -85c56 -58 83 -137 83 -218v-44h-486c7 -40 23 -78 51 -108c36 -39 87 -60 140 -60c51 0 102 14 141 48
c13 12 24 25 33 40zM436 892h91l-115 -180h-123l-115 180h90l86 -105zM542 337c-7 40 -23 78 -51 108c-36 39 -88 60 -141 60s-104 -21 -140 -60c-28 -30 -44 -68 -51 -108h383z" />
    <glyph glyph-name="rcaron" unicode="&#x159;" horiz-adv-x="413" 
d="M183 508c31 50 83 87 143 87c34 0 68 -8 98 -22l-39 -83c-18 10 -38 15 -59 15c-41 0 -79 -22 -103 -55c-30 -41 -40 -92 -40 -142v-308h-99v585h99v-77zM358 892h91l-115 -180h-123l-115 180h90l86 -105z" />
    <glyph glyph-name="less" unicode="&#x3c;" horiz-adv-x="686" 
d="M180 292l451 -194v-106l-575 247v107l575 247v-106z" />
    <glyph glyph-name="ccedilla" unicode="&#xe7;" horiz-adv-x="669" 
d="M624 178c-14 -38 -34 -73 -63 -103c-49 -50 -115 -78 -185 -84l-10 -46c38 -2 75 -13 105 -37s47 -60 47 -98s-17 -75 -47 -99c-34 -27 -78 -38 -122 -38s-87 11 -121 38c-18 15 -32 35 -40 57l75 26c10 -33 48 -49 86 -49c42 0 89 22 89 65s-47 64 -89 64h-73l27 119
c-62 9 -121 36 -165 82c-56 58 -82 136 -82 217s26 160 82 218c55 57 132 85 211 85s157 -28 212 -85c29 -30 49 -65 63 -103l-93 -33c-9 26 -23 50 -42 71c-36 39 -87 60 -140 60s-103 -21 -139 -60c-38 -41 -55 -97 -55 -153s17 -111 55 -152c36 -39 86 -60 139 -60
s104 21 140 60c19 21 33 45 42 71z" />
    <glyph glyph-name="quoteright" unicode="&#x2019;" horiz-adv-x="357" 
d="M182 900h103l-129 -292h-77z" />
    <glyph glyph-name="exclam" unicode="!" horiz-adv-x="407" 
d="M154 264v636h100v-636h-100zM140 64c0 37 27 65 64 65s64 -28 64 -65s-27 -64 -64 -64s-64 27 -64 64z" />
    <glyph glyph-name="D" unicode="D" horiz-adv-x="882" 
d="M98 0v900h280c117 0 231 -42 312 -126c83 -86 121 -204 121 -324s-38 -238 -121 -324c-81 -84 -195 -126 -312 -126h-280zM197 90h181c91 0 179 34 241 101c65 70 93 164 93 259s-28 189 -93 259c-62 67 -150 101 -241 101h-181v-720z" />
    <glyph glyph-name="three" unicode="3" 
d="M311 820c-71 0 -136 -42 -159 -101l-92 36c13 32 32 60 57 84c52 49 123 71 194 71s142 -22 194 -71c50 -47 75 -113 75 -181c0 -60 -28 -116 -75 -153c-20 -16 -42 -28 -65 -37c24 -11 46 -26 65 -44c50 -47 75 -114 75 -182s-25 -134 -75 -181
c-52 -49 -123 -71 -194 -71s-142 22 -194 71c-25 24 -44 52 -57 84l92 36c23 -59 88 -101 159 -101c45 0 90 15 123 46c32 30 47 72 47 116s-15 88 -47 118c-33 31 -78 45 -123 45h-59v90h59c45 0 90 14 123 45c32 30 47 74 47 118s-15 86 -47 116c-33 31 -78 46 -123 46z
" />
    <glyph glyph-name="zacute" unicode="&#x17a;" horiz-adv-x="518" 
d="M34 495v90h450v-100l-339 -395h339v-90h-450v100l339 395h-339zM312 892h124l-152 -180h-92z" />
    <glyph glyph-name="Ydieresis" unicode="&#x178;" horiz-adv-x="728" 
d="M8 900h113l246 -444l247 444h107l-307 -553v-347h-99v347zM172 1036c0 38 29 66 67 66s67 -28 67 -66s-29 -67 -67 -67s-67 29 -67 67zM423 1036c0 38 29 66 67 66s67 -28 67 -66s-29 -67 -67 -67s-67 29 -67 67z" />
    <glyph glyph-name="ocircumflex" unicode="&#xf4;" horiz-adv-x="700" 
d="M350 505c-53 0 -104 -21 -140 -60c-38 -41 -55 -97 -55 -153s17 -111 55 -152c36 -39 87 -60 140 -60s105 21 141 60c38 41 55 96 55 152s-17 112 -55 153c-36 39 -88 60 -141 60zM350 595c79 0 157 -28 212 -85c56 -58 83 -137 83 -218s-27 -159 -83 -217
c-55 -57 -133 -85 -212 -85s-156 28 -211 85c-56 58 -83 136 -83 217s27 160 83 218c55 57 132 85 211 85zM350 817l-86 -105h-90l115 180h123l115 -180h-91z" />
    <glyph glyph-name="Adieresis" unicode="&#xc4;" horiz-adv-x="777" 
d="M14 0l325 900h100l324 -900h-105l-86 239h-375l-86 -239h-97zM196 1036c0 38 29 66 67 66s67 -28 67 -66s-29 -67 -67 -67s-67 29 -67 67zM447 1036c0 38 29 66 67 66s67 -28 67 -66s-29 -67 -67 -67s-67 29 -67 67zM539 329l-155 429l-154 -429h309z" />
    <glyph glyph-name="ae" unicode="&#xe6;" horiz-adv-x="1036" 
d="M520 82c-41 -61 -130 -92 -214 -92c-63 0 -126 14 -176 52c-42 32 -68 82 -68 135s26 103 68 135c50 38 113 52 176 52c54 0 108 -19 145 -57v57c0 38 -14 76 -41 102c-28 27 -65 39 -104 39s-76 -12 -104 -39c-12 -12 -22 -27 -29 -42l-89 42c11 24 26 45 46 64
c47 44 111 65 176 65s129 -21 176 -65c12 -11 22 -23 31 -36c47 62 125 101 207 101c74 0 144 -30 193 -85c53 -59 75 -139 75 -218v-44h-435c6 -39 19 -77 44 -108c30 -37 75 -60 123 -60c63 0 124 34 149 85l85 -48c-11 -20 -24 -38 -41 -54c-51 -50 -121 -73 -193 -73
c-77 0 -152 34 -200 92zM306 274c-65 0 -145 -29 -145 -97s80 -97 145 -97s145 29 145 97s-80 97 -145 97zM886 337c-6 39 -19 77 -44 108c-30 37 -74 60 -122 60s-93 -23 -123 -60c-25 -31 -38 -69 -44 -108h333z" />
    <glyph glyph-name="Lcaron" unicode="&#x13d;" horiz-adv-x="644" 
d="M98 0v900h99v-810h405v-90h-504zM420 900h103l-129 -292h-77z" />
    <glyph glyph-name="Idotaccent" unicode="&#x130;" horiz-adv-x="323" 
d="M112 0v900h99v-900h-99zM95 1036c0 38 29 66 67 66s67 -28 67 -66s-29 -67 -67 -67s-67 29 -67 67z" />
    <glyph glyph-name="Oslash" unicode="&#xd8;" horiz-adv-x="980" 
d="M490 820c-90 0 -177 -37 -237 -104c-65 -73 -92 -169 -92 -266c0 -83 20 -165 66 -232l468 529c-57 47 -130 73 -205 73zM490 910c98 0 193 -31 268 -91l72 81h116l-127 -143c68 -86 99 -196 99 -307c0 -122 -37 -242 -120 -331c-79 -85 -192 -129 -308 -129
c-98 0 -193 31 -268 91l-72 -81h-116l127 143c-68 86 -99 196 -99 307c0 122 37 242 120 331c79 85 192 129 308 129zM285 153c57 -47 130 -73 205 -73c90 0 177 37 237 104c65 73 92 169 92 266c0 83 -20 165 -66 232z" />
    <glyph glyph-name="Lacute" unicode="&#x139;" horiz-adv-x="644" 
d="M98 0v900h99v-810h405v-90h-504zM201 1147h124l-152 -180h-92z" />
    <glyph glyph-name="acircumflex" unicode="&#xe2;" horiz-adv-x="658" 
d="M315 364c60 0 120 -20 160 -61v61c0 39 -15 77 -44 102c-32 28 -74 39 -116 39s-83 -11 -115 -39c-14 -12 -24 -28 -32 -44l-89 44c12 24 29 46 50 64c51 45 118 65 186 65s136 -20 187 -65c47 -42 72 -103 72 -166v-364h-99v51c-40 -41 -100 -61 -160 -61
c-66 0 -132 13 -186 52c-44 32 -73 81 -73 135s29 103 73 135c54 39 120 52 186 52zM315 274c-68 0 -160 -26 -160 -97s92 -97 160 -97s160 26 160 97s-92 97 -160 97zM315 817l-86 -105h-90l115 180h123l115 -180h-91z" />
    <glyph glyph-name="one" unicode="1" horiz-adv-x="476" 
d="M224 0v781l-168 -135v119l167 135h100v-900h-99z" />
    <glyph glyph-name="z" unicode="z" horiz-adv-x="518" 
d="M34 495v90h450v-100l-339 -395h339v-90h-450v100l339 395h-339z" />
    <glyph glyph-name="otilde" unicode="&#xf5;" horiz-adv-x="700" 
d="M288 763c-28 0 -55 -17 -55 -46h-79c0 34 12 67 37 90c26 24 61 36 97 36c44 0 81 -33 125 -33c28 0 55 17 55 46h79c0 -34 -12 -68 -37 -91c-26 -24 -61 -35 -97 -35c-44 0 -81 33 -125 33zM350 505c-53 0 -104 -21 -140 -60c-38 -41 -55 -97 -55 -153s17 -111 55 -152
c36 -39 87 -60 140 -60s105 21 141 60c38 41 55 96 55 152s-17 112 -55 153c-36 39 -88 60 -141 60zM350 595c79 0 157 -28 212 -85c56 -58 83 -137 83 -218s-27 -159 -83 -217c-55 -57 -133 -85 -212 -85s-156 28 -211 85c-56 58 -83 136 -83 217s27 160 83 218
c55 57 132 85 211 85z" />
    <glyph glyph-name="IJ" unicode="&#x132;" horiz-adv-x="847" 
d="M757 900v-640c0 -72 -23 -142 -72 -194c-48 -50 -115 -76 -184 -76s-136 26 -184 76c-14 14 -25 29 -35 46l85 49c25 -47 76 -81 134 -81c43 0 85 18 113 51c31 36 44 82 44 129v640h99zM112 0v900h99v-900h-99z" />
    <glyph glyph-name="Zacute" unicode="&#x179;" horiz-adv-x="714" 
d="M34 810v90h647v-100l-538 -710h538v-90h-647v100l538 710h-538zM410 1147h124l-152 -180h-91z" />
    <glyph glyph-name="oacute" unicode="&#xf3;" horiz-adv-x="700" 
d="M403 892h124l-152 -180h-91zM350 505c-53 0 -104 -21 -140 -60c-38 -41 -55 -97 -55 -153s17 -111 55 -152c36 -39 87 -60 140 -60s105 21 141 60c38 41 55 96 55 152s-17 112 -55 153c-36 39 -88 60 -141 60zM350 595c79 0 157 -28 212 -85c56 -58 83 -137 83 -218
s-27 -159 -83 -217c-55 -57 -133 -85 -212 -85s-156 28 -211 85c-56 58 -83 136 -83 217s27 160 83 218c55 57 132 85 211 85z" />
    <glyph glyph-name="two" unicode="2" 
d="M325 820c-71 0 -136 -42 -159 -101l-92 36c13 32 32 60 57 84c52 49 123 71 194 71s142 -22 194 -71c50 -47 75 -113 75 -181c0 -173 -119 -314 -245 -433l-147 -135h392v-90h-538v90c82 75 163 150 245 225c100 95 194 206 194 343c0 44 -15 86 -47 116
c-33 31 -78 46 -123 46z" />
    <glyph glyph-name="question" unicode="?" horiz-adv-x="616" 
d="M294 820c-66 0 -124 -43 -143 -99l-92 34c12 31 30 60 54 84c48 48 113 71 181 71s134 -23 182 -71s70 -113 70 -181s-22 -134 -70 -182c-36 -36 -82 -58 -132 -67v-145h-99v231h49c41 0 82 15 110 45c30 31 43 75 43 118s-13 85 -43 116c-28 30 -69 46 -110 46zM230 64
c0 37 27 65 64 65s65 -28 65 -65s-28 -64 -65 -64s-64 27 -64 64z" />
    <glyph glyph-name="Otilde" unicode="&#xd5;" horiz-adv-x="980" 
d="M427 1018c-28 0 -55 -17 -55 -46h-79c0 34 13 68 38 91c26 24 60 35 96 35c44 0 82 -33 126 -33c28 0 54 17 54 46h80c0 -34 -13 -67 -38 -90c-26 -24 -60 -36 -96 -36c-44 0 -82 33 -126 33zM490 820c-90 0 -177 -37 -237 -104c-65 -73 -92 -169 -92 -266
s27 -193 92 -266c60 -67 147 -104 237 -104s177 37 237 104c65 73 92 169 92 266s-27 193 -92 266c-60 67 -147 104 -237 104zM490 910c116 0 229 -44 308 -129c83 -89 120 -209 120 -331s-37 -242 -120 -331c-79 -85 -192 -129 -308 -129s-229 44 -308 129
c-83 89 -120 209 -120 331s37 242 120 331c79 85 192 129 308 129z" />
    <glyph glyph-name="racute" unicode="&#x155;" horiz-adv-x="413" 
d="M183 508c31 50 83 87 143 87c34 0 68 -8 98 -22l-39 -83c-18 10 -38 15 -59 15c-41 0 -79 -22 -103 -55c-30 -41 -40 -92 -40 -142v-308h-99v585h99v-77zM325 892h124l-152 -180h-92z" />
    <glyph glyph-name="hyphen" unicode="-" horiz-adv-x="406" 
d="M56 248v89h293v-89h-293z" />
    <glyph glyph-name="guilsinglright" unicode="&#x203a;" horiz-adv-x="385" 
d="M323 292l-152 -292h-109l153 292l-153 293h109z" />
    <glyph glyph-name="zcaron" unicode="&#x17e;" horiz-adv-x="518" 
d="M34 495v90h450v-100l-339 -395h339v-90h-450v100l339 395h-339zM345 892h91l-116 -180h-122l-116 180h91l86 -105z" />
    <glyph glyph-name="q" unicode="q" horiz-adv-x="714" 
d="M343 595c79 0 150 -46 189 -109v99h99v-885h-99v399c-39 -63 -110 -109 -189 -109c-78 0 -153 29 -206 85c-55 58 -81 137 -81 217s26 160 81 218c53 56 128 85 206 85zM343 505c-52 0 -101 -21 -135 -60c-37 -42 -53 -97 -53 -153s16 -110 53 -152
c34 -39 83 -60 135 -60s102 21 136 60c37 42 53 96 53 152s-16 111 -53 153c-34 39 -84 60 -136 60z" />
    <glyph glyph-name="sacute" unicode="&#x15b;" horiz-adv-x="560" 
d="M333 892h124l-152 -180h-92zM280 -10c-61 0 -122 14 -171 50c-29 22 -51 52 -61 86l95 27c12 -52 79 -73 137 -73c63 0 139 21 139 87c0 34 -25 61 -59 67l-130 32c-84 14 -156 73 -156 155c0 49 17 97 54 128c42 35 97 46 152 46c54 0 108 -14 149 -49
c25 -21 42 -49 51 -80l-95 -27c-11 42 -57 66 -105 66c-28 0 -57 -5 -79 -22c-19 -15 -28 -38 -28 -62c0 -36 34 -60 72 -66l130 -31c80 -13 143 -77 143 -157c0 -51 -22 -100 -63 -130c-50 -37 -113 -47 -175 -47z" />
    <glyph glyph-name="ohungarumlaut" unicode="&#x151;" horiz-adv-x="700" 
d="M180 712l110 180h121l-141 -180h-90zM499 892h121l-141 -180h-90zM350 505c-53 0 -104 -21 -140 -60c-38 -41 -55 -97 -55 -153s17 -111 55 -152c36 -39 87 -60 140 -60s105 21 141 60c38 41 55 96 55 152s-17 112 -55 153c-36 39 -88 60 -141 60zM350 595
c79 0 157 -28 212 -85c56 -58 83 -137 83 -218s-27 -159 -83 -217c-55 -57 -133 -85 -212 -85s-156 28 -211 85c-56 58 -83 136 -83 217s27 160 83 218c55 57 132 85 211 85z" />
    <glyph glyph-name="Ncaron" unicode="&#x147;" horiz-adv-x="875" 
d="M98 0v900h100l480 -727v727h99v-900h-100l-480 727v-727h-99zM524 1147h90l-115 -180h-123l-115 180h91l86 -105z" />
    <glyph glyph-name="v" unicode="v" horiz-adv-x="588" 
d="M8 585h107l181 -450l182 450h102l-236 -585h-100z" />
    <glyph glyph-name="Igrave" unicode="&#xcc;" horiz-adv-x="323" 
d="M112 0v900h99v-900h-99zM-15 1147h124l119 -180h-91z" />
    <glyph glyph-name="zero" unicode="0" horiz-adv-x="728" 
d="M364 820c-61 0 -115 -36 -143 -90c-44 -86 -46 -184 -46 -280s2 -194 46 -280c28 -54 82 -90 143 -90s116 36 144 90c44 86 46 184 46 280s-2 194 -46 280c-28 54 -83 90 -144 90zM364 910c87 0 172 -38 218 -112c64 -102 71 -227 71 -348s-7 -246 -71 -348
c-46 -74 -131 -112 -218 -112s-171 38 -217 112c-64 102 -71 227 -71 348s7 246 71 348c46 74 130 112 217 112z" />
    <glyph glyph-name="bracketleft" unicode="[" horiz-adv-x="392" 
d="M126 -300v1245h223v-90h-124v-1065h124v-90h-223z" />
    <glyph glyph-name="ograve" unicode="&#xf2;" horiz-adv-x="700" 
d="M174 892h124l119 -180h-92zM350 505c-53 0 -104 -21 -140 -60c-38 -41 -55 -97 -55 -153s17 -111 55 -152c36 -39 87 -60 140 -60s105 21 141 60c38 41 55 96 55 152s-17 112 -55 153c-36 39 -88 60 -141 60zM350 595c79 0 157 -28 212 -85c56 -58 83 -137 83 -218
s-27 -159 -83 -217c-55 -57 -133 -85 -212 -85s-156 28 -211 85c-56 58 -83 136 -83 217s27 160 83 218c55 57 132 85 211 85z" />
    <glyph glyph-name="yacute" unicode="&#xfd;" horiz-adv-x="588" 
d="M8 585h107l181 -440l182 440h102l-365 -885h-102l130 315zM347 892h124l-152 -180h-92z" />
    <glyph glyph-name="w" unicode="w" horiz-adv-x="903" 
d="M8 585h108l201 -461l85 194l-116 267h108l62 -143l62 143h100l-112 -258l89 -203l201 461h100l-255 -585h-100l-89 204l-89 -204h-100z" />
    <glyph glyph-name="r" unicode="r" horiz-adv-x="413" 
d="M183 508c31 50 83 87 143 87c34 0 68 -8 98 -22l-39 -83c-18 10 -38 15 -59 15c-41 0 -79 -22 -103 -55c-30 -41 -40 -92 -40 -142v-308h-99v585h99v-77z" />
    <glyph glyph-name="I" unicode="I" horiz-adv-x="323" 
d="M112 0v900h99v-900h-99z" />
    <glyph glyph-name="ecircumflex" unicode="&#xea;" horiz-adv-x="693" 
d="M608 117c-12 -20 -28 -38 -46 -54c-58 -51 -135 -73 -212 -73c-79 0 -156 28 -211 85c-56 58 -83 136 -83 217s27 160 83 218c55 57 132 85 211 85s157 -28 212 -85c56 -58 83 -137 83 -218v-44h-486c7 -40 23 -78 51 -108c36 -39 87 -60 140 -60c51 0 102 14 141 48
c13 12 24 25 33 40zM542 337c-7 40 -23 78 -51 108c-36 39 -88 60 -141 60s-104 -21 -140 -60c-28 -30 -44 -68 -51 -108h383zM350 817l-86 -105h-90l115 180h123l115 -180h-91z" />
    <glyph glyph-name="dcroat" unicode="&#x111;" horiz-adv-x="735" 
d="M343 595c79 0 150 -46 189 -109v229h-189v90h189v145h99v-145h91v-90h-91v-715h-99v99c-39 -63 -110 -109 -189 -109c-78 0 -153 29 -206 85c-55 58 -81 137 -81 217s26 160 81 218c53 56 128 85 206 85zM343 505c-52 0 -101 -21 -135 -60c-37 -42 -53 -97 -53 -153
s16 -110 53 -152c34 -39 83 -60 135 -60s102 21 136 60c37 42 53 96 53 152s-16 111 -53 153c-34 39 -84 60 -136 60z" />
    <glyph glyph-name="OE" unicode="&#x152;" horiz-adv-x="1176" 
d="M438 820c-79 0 -152 -41 -199 -104c-57 -76 -78 -171 -78 -266s21 -190 78 -266c47 -63 120 -104 199 -104s152 41 199 104c57 76 77 171 77 266s-20 190 -77 266c-47 63 -120 104 -199 104zM714 127c-66 -85 -167 -137 -276 -137c-105 0 -205 48 -271 129
c-75 92 -105 212 -105 331s30 239 105 331c66 81 166 129 271 129c109 0 210 -52 276 -137v127h415v-90h-316v-315h266v-90h-266v-315h316v-90h-415v127z" />
    <glyph glyph-name="Atilde" unicode="&#xc3;" horiz-adv-x="777" 
d="M14 0l325 900h100l324 -900h-105l-86 239h-375l-86 -239h-97zM326 1018c-28 0 -55 -17 -55 -46h-79c0 34 12 68 37 91c26 24 61 35 97 35c44 0 81 -33 125 -33c28 0 55 17 55 46h79c0 -34 -12 -67 -37 -90c-26 -24 -61 -36 -97 -36c-44 0 -81 33 -125 33zM539 329
l-155 429l-154 -429h309z" />
    <glyph glyph-name="dcaron" unicode="&#x10f;" horiz-adv-x="721" 
d="M343 595c79 0 150 -46 189 -109v464h99v-950h-99v99c-39 -63 -110 -109 -189 -109c-78 0 -153 29 -206 85c-55 58 -81 137 -81 217s26 160 81 218c53 56 128 85 206 85zM785 950h103l-130 -292h-76zM343 505c-52 0 -101 -21 -135 -60c-37 -42 -53 -97 -53 -153
s16 -110 53 -152c34 -39 83 -60 135 -60s102 21 136 60c37 42 53 96 53 152s-16 111 -53 153c-34 39 -84 60 -136 60z" />
    <glyph glyph-name="parenright" unicode=")" horiz-adv-x="385" 
d="M59 -296l-50 69c53 33 90 98 122 160c62 123 93 259 93 397s-31 274 -93 397c-32 62 -69 127 -122 160l50 69c57 -40 102 -104 140 -168c82 -139 124 -297 124 -458s-42 -319 -124 -458c-38 -64 -83 -128 -140 -168z" />
    <glyph glyph-name="Thorn" unicode="&#xde;" horiz-adv-x="728" 
d="M98 0v900h99v-135h170c80 0 160 -23 220 -76c56 -49 86 -120 86 -194s-30 -145 -86 -194c-60 -53 -140 -76 -220 -76h-170v-225h-99zM197 675v-360h170c54 0 108 14 149 50c37 32 58 80 58 130s-21 98 -58 130c-41 36 -95 50 -149 50h-170z" />
    <glyph glyph-name="eth" unicode="&#xf0;" horiz-adv-x="735" 
d="M228 665v95l145 48c-47 54 -101 102 -162 142h136c43 -34 81 -71 116 -112l197 64v-94l-139 -46c93 -137 144 -301 144 -470c0 -81 -28 -160 -85 -217c-58 -57 -139 -85 -220 -85s-161 28 -219 85c-57 57 -85 136 -85 217s28 161 85 218c58 57 138 85 219 85
c64 0 126 -25 171 -70c-23 74 -57 143 -100 207zM566 292c0 57 -19 112 -58 153c-38 40 -93 60 -148 60s-109 -20 -147 -60c-39 -41 -58 -96 -58 -153s19 -111 58 -152c38 -40 92 -60 147 -60s110 20 148 60c39 41 58 95 58 152z" />
    <glyph glyph-name="aogonek" unicode="&#x105;" horiz-adv-x="658" 
d="M315 364c60 0 120 -20 160 -61v61c0 39 -15 77 -44 102c-32 28 -74 39 -116 39s-83 -11 -115 -39c-14 -12 -24 -28 -32 -44l-89 44c12 24 29 46 50 64c51 45 118 65 186 65s136 -20 187 -65c47 -42 72 -103 72 -166v-357l3 -7l-95 -108c-21 -27 -55 -47 -55 -82
c0 -43 47 -65 89 -65c30 0 62 10 78 31l57 -52c-31 -34 -85 -51 -135 -51c-44 0 -87 11 -121 38c-30 24 -47 61 -47 99c0 66 67 103 107 154l32 36h-12v51c-40 -41 -100 -61 -160 -61c-66 0 -132 13 -186 52c-44 32 -73 81 -73 135s29 103 73 135c54 39 120 52 186 52z
M315 274c-68 0 -160 -26 -160 -97s92 -97 160 -97s160 26 160 97s-92 97 -160 97z" />
    <glyph glyph-name="ccaron" unicode="&#x10d;" horiz-adv-x="669" 
d="M624 178c-14 -38 -34 -73 -63 -103c-55 -57 -133 -85 -212 -85s-156 28 -211 85c-56 58 -82 136 -82 217s26 160 82 218c55 57 132 85 211 85s157 -28 212 -85c29 -30 49 -65 63 -103l-93 -33c-9 26 -23 50 -42 71c-36 39 -87 60 -140 60s-103 -21 -139 -60
c-38 -41 -55 -97 -55 -153s17 -111 55 -152c36 -39 86 -60 139 -60s104 21 140 60c19 21 33 45 42 71zM435 892h91l-115 -180h-123l-115 180h90l86 -105z" />
    <glyph glyph-name="cacute" unicode="&#x107;" horiz-adv-x="669" 
d="M624 178c-14 -38 -34 -73 -63 -103c-55 -57 -133 -85 -212 -85s-156 28 -211 85c-56 58 -82 136 -82 217s26 160 82 218c55 57 132 85 211 85s157 -28 212 -85c29 -30 49 -65 63 -103l-93 -33c-9 26 -23 50 -42 71c-36 39 -87 60 -140 60s-103 -21 -139 -60
c-38 -41 -55 -97 -55 -153s17 -111 55 -152c36 -39 86 -60 139 -60s104 21 140 60c19 21 33 45 42 71zM402 892h124l-152 -180h-91z" />
    <glyph glyph-name="colon" unicode=":" horiz-adv-x="323" 
d="M97 64c0 37 28 65 65 65s64 -28 64 -65s-27 -64 -64 -64s-65 27 -65 64zM97 521c0 37 28 64 65 64s64 -27 64 -64s-27 -65 -64 -65s-65 28 -65 65z" />
    <glyph glyph-name="s" unicode="s" horiz-adv-x="560" 
d="M280 -10c-61 0 -122 14 -171 50c-29 22 -51 52 -61 86l95 27c12 -52 79 -73 137 -73c63 0 139 21 139 87c0 34 -25 61 -59 67l-130 32c-84 14 -156 73 -156 155c0 49 17 97 54 128c42 35 97 46 152 46c54 0 108 -14 149 -49c25 -21 42 -49 51 -80l-95 -27
c-11 42 -57 66 -105 66c-28 0 -57 -5 -79 -22c-19 -15 -28 -38 -28 -62c0 -36 34 -60 72 -66l130 -31c80 -13 143 -77 143 -157c0 -51 -22 -100 -63 -130c-50 -37 -113 -47 -175 -47z" />
    <glyph glyph-name="Ecircumflex" unicode="&#xca;" horiz-adv-x="651" 
d="M98 0v900h504v-90h-405v-315h356v-90h-356v-315h405v-90h-504zM350 1073l-86 -106h-90l115 180h123l115 -180h-91z" />
    <glyph glyph-name="F" unicode="F" horiz-adv-x="630" 
d="M98 0v900h504v-90h-405v-315h356v-90h-356v-405h-99z" />
    <glyph glyph-name="bracketright" unicode="]" horiz-adv-x="392" 
d="M42 945h223v-1245h-223v90h124v1065h-124v90z" />
    <glyph glyph-name="Scaron" unicode="&#x160;" horiz-adv-x="728" 
d="M527 714c-22 63 -91 106 -166 106c-47 0 -94 -11 -128 -43c-33 -30 -46 -74 -46 -119c0 -64 53 -114 117 -132l184 -54c103 -29 179 -117 179 -223c0 -72 -26 -143 -81 -190c-62 -52 -144 -69 -225 -69c-80 0 -158 22 -219 73c-34 29 -59 65 -73 106l94 32
c9 -29 26 -55 50 -74c41 -34 94 -47 148 -47s110 11 152 45c37 30 55 76 55 124c0 63 -44 116 -105 133l-184 54c-106 30 -191 115 -191 222c0 69 21 138 72 185c54 50 128 67 201 67c72 0 145 -22 198 -71c28 -26 48 -58 61 -94zM447 1147h91l-115 -180h-123l-115 180h90
l86 -105z" />
    <glyph glyph-name="ffl" unicode="&#xfb04;" horiz-adv-x="973" 
d="M39 495v90h109v214c0 43 13 85 43 116c29 30 69 45 111 45c36 0 71 -11 98 -33l-60 -75c-10 11 -23 18 -38 18c-36 0 -55 -36 -55 -71v-214h220v214c0 43 13 85 43 116c29 30 69 45 111 45c36 0 71 -11 98 -33l-60 -75c-10 11 -23 18 -38 18c-36 0 -55 -36 -55 -71v-214
h115v-90h-115v-495h-99v495h-220v-495h-99v495h-109zM791 0v950h99v-950h-99z" />
    <glyph glyph-name="H" unicode="H" horiz-adv-x="840" 
d="M98 0v900h99v-405h445v405h99v-900h-99v405h-445v-405h-99z" />
    <glyph glyph-name="at" unicode="@" horiz-adv-x="938" 
d="M828 110c-16 -16 -33 -31 -52 -43c-91 -58 -199 -77 -307 -77c-116 0 -228 44 -307 129c-83 89 -120 209 -120 331s37 242 120 331c79 85 191 129 307 129s228 -44 307 -129c83 -89 120 -209 120 -331c0 -61 -23 -120 -68 -162c-47 -43 -109 -63 -173 -63h-99v56
c-27 -34 -67 -56 -110 -56c-57 0 -111 21 -150 63c-40 44 -59 103 -59 162s19 118 59 162c39 42 93 63 150 63c43 0 83 -22 110 -56v56h99v-360c38 0 75 12 102 38c26 25 40 61 40 97c0 97 -28 193 -92 266c-60 67 -146 104 -236 104s-176 -37 -236 -104
c-64 -73 -92 -169 -92 -266s28 -193 92 -266c60 -67 146 -104 236 -104c82 0 165 12 236 52c21 12 40 27 55 44zM556 450c0 68 -40 135 -110 135s-110 -67 -110 -135s40 -135 110 -135s110 67 110 135z" />
    <glyph glyph-name="adieresis" unicode="&#xe4;" horiz-adv-x="658" 
d="M315 364c60 0 120 -20 160 -61v61c0 39 -15 77 -44 102c-32 28 -74 39 -116 39s-83 -11 -115 -39c-14 -12 -24 -28 -32 -44l-89 44c12 24 29 46 50 64c51 45 118 65 186 65s136 -20 187 -65c47 -42 72 -103 72 -166v-364h-99v51c-40 -41 -100 -61 -160 -61
c-66 0 -132 13 -186 52c-44 32 -73 81 -73 135s29 103 73 135c54 39 120 52 186 52zM123 780c0 38 29 67 67 67s67 -29 67 -67s-29 -67 -67 -67s-67 29 -67 67zM374 780c0 38 29 67 67 67s66 -29 66 -67s-28 -67 -66 -67s-67 29 -67 67zM315 274c-68 0 -160 -26 -160 -97
s92 -97 160 -97s160 26 160 97s-92 97 -160 97z" />
    <glyph glyph-name="abreve" unicode="&#x103;" horiz-adv-x="658" 
d="M315 364c60 0 120 -20 160 -61v61c0 39 -15 77 -44 102c-32 28 -74 39 -116 39s-83 -11 -115 -39c-14 -12 -24 -28 -32 -44l-89 44c12 24 29 46 50 64c51 45 118 65 186 65s136 -20 187 -65c47 -42 72 -103 72 -166v-364h-99v51c-40 -41 -100 -61 -160 -61
c-66 0 -132 13 -186 52c-44 32 -73 81 -73 135s29 103 73 135c54 39 120 52 186 52zM315 797c52 0 118 24 118 78h79c0 -44 -20 -86 -55 -114c-40 -32 -91 -44 -142 -44s-101 12 -141 44c-35 28 -56 70 -56 114h80c0 -54 65 -78 117 -78zM315 274c-68 0 -160 -26 -160 -97
s92 -97 160 -97s160 26 160 97s-92 97 -160 97z" />
    <glyph glyph-name="Ntilde" unicode="&#xd1;" horiz-adv-x="875" 
d="M98 0v900h100l480 -727v727h99v-900h-100l-480 727v-727h-99zM375 1018c-28 0 -55 -17 -55 -46h-79c0 34 13 68 38 91c26 24 60 35 96 35c44 0 81 -33 125 -33c28 0 55 17 55 46h79c0 -34 -12 -67 -37 -90c-26 -24 -61 -36 -97 -36c-44 0 -81 33 -125 33z" />
    <glyph glyph-name="Aring" unicode="&#xc5;" horiz-adv-x="777" 
d="M14 0l325 900h100l324 -900h-105l-86 239h-375l-86 -239h-97zM539 329l-155 429l-154 -429h309zM389 1177c34 0 67 -10 91 -33c24 -22 36 -55 36 -87s-12 -64 -36 -86c-24 -23 -57 -34 -91 -34s-68 11 -92 34c-24 22 -35 54 -35 86s11 65 35 87c24 23 58 33 92 33z
M389 1117c-34 0 -61 -25 -61 -60c0 -34 27 -60 61 -60s61 25 61 60c0 34 -27 60 -61 60z" />
    <glyph glyph-name="aacute" unicode="&#xe1;" horiz-adv-x="658" 
d="M315 364c60 0 120 -20 160 -61v61c0 39 -15 77 -44 102c-32 28 -74 39 -116 39s-83 -11 -115 -39c-14 -12 -24 -28 -32 -44l-89 44c12 24 29 46 50 64c51 45 118 65 186 65s136 -20 187 -65c47 -42 72 -103 72 -166v-364h-99v51c-40 -41 -100 -61 -160 -61
c-66 0 -132 13 -186 52c-44 32 -73 81 -73 135s29 103 73 135c54 39 120 52 186 52zM368 892h124l-152 -180h-92zM315 274c-68 0 -160 -26 -160 -97s92 -97 160 -97s160 26 160 97s-92 97 -160 97z" />
    <glyph glyph-name="breve" unicode="&#x2d8;" horiz-adv-x="294" 
d="M147 805c52 0 117 23 117 77h79c0 -44 -20 -85 -55 -113c-40 -32 -90 -44 -141 -44s-102 12 -142 44c-35 28 -55 69 -55 113h79c0 -54 66 -77 118 -77z" />
    <glyph glyph-name="plus" unicode="+" horiz-adv-x="686" 
d="M294 585h99v-248h238v-89h-238v-248h-99v248h-238v89h238v248z" />
    <glyph glyph-name="edieresis" unicode="&#xeb;" horiz-adv-x="693" 
d="M608 117c-12 -20 -28 -38 -46 -54c-58 -51 -135 -73 -212 -73c-79 0 -156 28 -211 85c-56 58 -83 136 -83 217s27 160 83 218c55 57 132 85 211 85s157 -28 212 -85c56 -58 83 -137 83 -218v-44h-486c7 -40 23 -78 51 -108c36 -39 87 -60 140 -60c51 0 102 14 141 48
c13 12 24 25 33 40zM158 780c0 38 29 67 67 67s67 -29 67 -67s-29 -67 -67 -67s-67 29 -67 67zM409 780c0 38 29 67 67 67s67 -29 67 -67s-29 -67 -67 -67s-67 29 -67 67zM542 337c-7 40 -23 78 -51 108c-36 39 -88 60 -141 60s-104 -21 -140 -60c-28 -30 -44 -68 -51 -108
h383z" />
    <glyph glyph-name="zdotaccent" unicode="&#x17c;" horiz-adv-x="518" 
d="M34 495v90h450v-100l-339 -395h339v-90h-450v100l339 395h-339zM192 780c0 38 29 67 67 67s67 -29 67 -67s-29 -67 -67 -67s-67 29 -67 67z" />
    <glyph glyph-name="ydieresis" unicode="&#xff;" horiz-adv-x="588" 
d="M8 585h107l181 -440l182 440h102l-365 -885h-102l130 315zM102 780c0 38 29 67 67 67s67 -29 67 -67s-29 -67 -67 -67s-67 29 -67 67zM353 780c0 38 28 67 66 67s67 -29 67 -67s-29 -67 -67 -67s-66 29 -66 67z" />
    <glyph glyph-name="Agrave" unicode="&#xc0;" horiz-adv-x="777" 
d="M14 0l325 900h100l324 -900h-105l-86 239h-375l-86 -239h-97zM212 1147h124l119 -180h-91zM539 329l-155 429l-154 -429h309z" />
    <glyph glyph-name="Uhungarumlaut" unicode="&#x170;" horiz-adv-x="832" 
d="M737 900v-599c0 -84 -30 -166 -90 -224c-61 -60 -145 -87 -231 -87s-171 27 -232 87c-60 58 -90 140 -90 224v599h99v-599c0 -59 21 -117 63 -159s100 -62 160 -62s118 20 160 62s62 100 62 159v599h99zM246 967l109 180h121l-141 -180h-89zM564 1147h121l-141 -180h-90z
" />
    <glyph glyph-name="p" unicode="p" horiz-adv-x="714" 
d="M371 -10c-79 0 -149 46 -188 109v-399h-99v885h99v-99c39 63 109 109 188 109c78 0 154 -29 207 -85c55 -58 81 -138 81 -218s-26 -159 -81 -217c-53 -56 -129 -85 -207 -85zM371 505c-52 0 -101 -21 -135 -60c-37 -42 -53 -97 -53 -153s16 -110 53 -152
c34 -39 83 -60 135 -60s102 21 136 60c37 42 53 96 53 152s-16 111 -53 153c-34 39 -84 60 -136 60z" />
    <glyph glyph-name="o" unicode="o" horiz-adv-x="700" 
d="M350 505c-53 0 -104 -21 -140 -60c-38 -41 -55 -97 -55 -153s17 -111 55 -152c36 -39 87 -60 140 -60s105 21 141 60c38 41 55 96 55 152s-17 112 -55 153c-36 39 -88 60 -141 60zM350 595c79 0 157 -28 212 -85c56 -58 83 -137 83 -218s-27 -159 -83 -217
c-55 -57 -133 -85 -212 -85s-156 28 -211 85c-56 58 -83 136 -83 217s27 160 83 218c55 57 132 85 211 85z" />
    <glyph glyph-name="L" unicode="L" horiz-adv-x="644" 
d="M98 0v900h99v-810h405v-90h-504z" />
    <glyph glyph-name="Tcaron" unicode="&#x164;" horiz-adv-x="644" 
d="M4 810v90h636v-90h-268v-810h-99v810h-269zM408 1147h91l-115 -180h-123l-115 180h90l86 -105z" />
    <glyph glyph-name="Uacute" unicode="&#xda;" horiz-adv-x="832" 
d="M737 900v-599c0 -84 -30 -166 -90 -224c-61 -60 -145 -87 -231 -87s-171 27 -232 87c-60 58 -90 140 -90 224v599h99v-599c0 -59 21 -117 63 -159s100 -62 160 -62s118 20 160 62s62 100 62 159v599h99zM468 1147h124l-151 -180h-92z" />
    <glyph glyph-name="oslash" unicode="&#xf8;" horiz-adv-x="700" 
d="M350 505c-53 0 -104 -21 -140 -60c-38 -41 -55 -97 -55 -153c0 -42 9 -83 29 -118l271 302c-31 19 -68 29 -105 29zM350 595c60 0 120 -17 169 -49l34 39h120l-90 -99c42 -55 62 -124 62 -194c0 -81 -27 -159 -83 -217c-55 -57 -133 -85 -212 -85c-60 0 -119 17 -168 49
l-34 -39h-120l89 99c-42 55 -61 123 -61 193c0 81 27 160 83 218c55 57 132 85 211 85zM246 109c31 -19 67 -29 104 -29c53 0 105 21 141 60c38 41 55 96 55 152c0 42 -10 84 -30 119z" />
    <glyph glyph-name="n" unicode="n" 
d="M183 509c41 54 112 86 184 86c60 0 118 -24 159 -68c43 -47 62 -110 62 -174v-353h-99v353c0 39 -9 79 -34 110c-22 27 -54 42 -88 42c-48 0 -95 -12 -132 -42c-33 -27 -52 -68 -52 -110v-353h-99v585h99v-76z" />
    <glyph glyph-name="backslash" unicode="\" horiz-adv-x="525" 
d="M389 -45l-361 990h107l361 -990h-107z" />
    <glyph glyph-name="R" unicode="R" horiz-adv-x="707" 
d="M98 0v900h269c80 0 160 -23 220 -76c56 -49 86 -120 86 -194s-30 -145 -86 -194c-29 -26 -62 -45 -98 -57l212 -379h-117l-194 361c-8 0 -15 -1 -23 -1h-170v-360h-99zM197 810v-360h170c54 0 108 14 149 50c37 32 58 80 58 130s-21 98 -58 130c-41 36 -95 50 -149 50
h-170z" />
    <glyph glyph-name="Eacute" unicode="&#xc9;" horiz-adv-x="651" 
d="M98 0v900h504v-90h-405v-315h356v-90h-356v-315h405v-90h-504zM403 1147h124l-152 -180h-91z" />
    <glyph glyph-name="tcedilla" unicode="&#x163;" horiz-adv-x="378" 
d="M12 495v90h127v365h99v-365h127v-90h-127v-495h-21l-12 -55c38 -2 75 -13 105 -37s47 -60 47 -98s-17 -75 -47 -99c-34 -27 -77 -38 -121 -38s-87 11 -121 38c-18 15 -32 35 -40 57l74 26c10 -33 49 -49 87 -49c42 0 89 22 89 65s-47 64 -89 64h-74l29 126h-5v495h-127z
" />
    <glyph glyph-name="Odieresis" unicode="&#xd6;" horiz-adv-x="980" 
d="M298 1036c0 38 29 66 67 66s67 -28 67 -66s-29 -67 -67 -67s-67 29 -67 67zM548 1036c0 38 29 66 67 66s67 -28 67 -66s-29 -67 -67 -67s-67 29 -67 67zM490 820c-90 0 -177 -37 -237 -104c-65 -73 -92 -169 -92 -266s27 -193 92 -266c60 -67 147 -104 237 -104
s177 37 237 104c65 73 92 169 92 266s-27 193 -92 266c-60 67 -147 104 -237 104zM490 910c116 0 229 -44 308 -129c83 -89 120 -209 120 -331s-37 -242 -120 -331c-79 -85 -192 -129 -308 -129s-229 44 -308 129c-83 89 -120 209 -120 331s37 242 120 331
c79 85 192 129 308 129z" />
    <glyph glyph-name="six" unicode="6" horiz-adv-x="686" 
d="M161 459c40 61 111 103 189 103c77 0 153 -26 208 -80c54 -54 81 -129 81 -206s-27 -152 -81 -206c-55 -54 -131 -80 -208 -80s-152 26 -207 80c-54 54 -81 129 -81 206v325c0 82 25 163 81 223c53 57 129 86 207 86s155 -29 208 -86c25 -27 44 -59 57 -92l-92 -36
c-9 23 -20 44 -36 63c-34 39 -85 61 -137 61s-102 -22 -136 -61c-37 -43 -53 -101 -53 -158v-142zM350 80c51 0 102 18 137 55c36 38 53 89 53 141s-17 104 -53 142c-35 37 -86 54 -137 54s-101 -17 -136 -54c-36 -38 -53 -90 -53 -142s17 -103 53 -141
c35 -37 85 -55 136 -55z" />
    <glyph glyph-name="Tcedilla" unicode="&#x162;" horiz-adv-x="644" 
d="M4 810v90h636v-90h-268v-810h-21l-13 -55c38 -2 75 -13 105 -37s48 -60 48 -98s-18 -75 -48 -99c-34 -27 -77 -38 -121 -38s-87 11 -121 38c-18 15 -32 35 -40 57l75 26c10 -33 48 -49 86 -49c42 0 89 22 89 65s-47 64 -89 64h-73l28 126h-4v810h-269z" />
    <glyph glyph-name="icircumflex" unicode="&#xee;" horiz-adv-x="266" 
d="M83 0v585h99v-585h-99zM133 817l-86 -105h-91l115 180h123l115 -180h-91z" />
    <glyph glyph-name="Eth" unicode="&#xd0;" horiz-adv-x="938" 
d="M434 0h-280v405h-104v90h104v405h280c117 0 231 -42 312 -126c83 -86 122 -204 122 -324s-39 -238 -122 -324c-81 -84 -195 -126 -312 -126zM254 90h180c91 0 179 34 241 101c65 70 94 164 94 259s-29 189 -94 259c-62 67 -150 101 -241 101h-180v-315h257v-90h-257v-315
z" />
    <glyph glyph-name="a" unicode="a" horiz-adv-x="658" 
d="M315 364c60 0 120 -20 160 -61v61c0 39 -15 77 -44 102c-32 28 -74 39 -116 39s-83 -11 -115 -39c-14 -12 -24 -28 -32 -44l-89 44c12 24 29 46 50 64c51 45 118 65 186 65s136 -20 187 -65c47 -42 72 -103 72 -166v-364h-99v51c-40 -41 -100 -61 -160 -61
c-66 0 -132 13 -186 52c-44 32 -73 81 -73 135s29 103 73 135c54 39 120 52 186 52zM315 274c-68 0 -160 -26 -160 -97s92 -97 160 -97s160 26 160 97s-92 97 -160 97z" />
    <glyph glyph-name="scedilla" unicode="&#x15f;" horiz-adv-x="560" 
d="M280 80c63 0 139 21 139 87c0 34 -25 61 -59 67l-130 32c-84 14 -156 73 -156 155c0 49 17 97 54 128c42 35 97 46 152 46c54 0 108 -14 149 -49c25 -21 42 -49 51 -80l-95 -27c-11 42 -57 66 -105 66c-28 0 -57 -5 -79 -22c-19 -15 -28 -38 -28 -62c0 -36 34 -60 72 -66
l130 -31c80 -13 143 -77 143 -157c0 -51 -22 -100 -63 -130c-43 -32 -95 -43 -148 -46l-11 -46c38 -2 75 -13 105 -37s47 -60 47 -98s-17 -75 -47 -99c-34 -27 -77 -38 -121 -38s-87 11 -121 38c-18 15 -32 35 -40 57l74 26c10 -33 49 -49 87 -49c42 0 89 22 89 65
s-47 64 -89 64h-73l27 119c-85 10 -164 56 -186 133l95 27c12 -52 79 -73 137 -73z" />
    <glyph glyph-name="nacute" unicode="&#x144;" 
d="M183 509c41 54 112 86 184 86c60 0 118 -24 159 -68c43 -47 62 -110 62 -174v-353h-99v353c0 39 -9 79 -34 110c-22 27 -54 42 -88 42c-48 0 -95 -12 -132 -42c-33 -27 -52 -68 -52 -110v-353h-99v585h99v-76zM389 892h124l-152 -180h-91z" />
    <glyph glyph-name="cwm" horiz-adv-x="0" 
 />
    <glyph glyph-name="Ccedilla" unicode="&#xc7;" horiz-adv-x="945" 
d="M881 250c-19 -48 -47 -92 -83 -131c-73 -79 -175 -122 -282 -128l-10 -46c38 -2 75 -13 105 -37s47 -60 47 -98s-17 -75 -47 -99c-34 -27 -77 -38 -121 -38s-87 11 -121 38c-18 15 -32 35 -40 57l74 26c10 -33 49 -49 87 -49c42 0 89 22 89 65s-47 64 -89 64h-73l26 118
c-99 10 -193 53 -261 127c-83 89 -120 209 -120 331s37 242 120 331c79 85 192 129 308 129s229 -44 308 -129c36 -39 64 -83 83 -131l-92 -37c-15 38 -35 72 -62 103c-60 67 -147 104 -237 104s-177 -37 -237 -104c-65 -73 -92 -169 -92 -266s27 -193 92 -266
c60 -67 147 -104 237 -104s177 37 237 104c27 31 47 65 62 103z" />
    <glyph glyph-name="macron" unicode="&#xaf;" horiz-adv-x="294" 
d="M-24 748v79h341v-79h-341z" />
    <glyph glyph-name="greater" unicode="&#x3e;" horiz-adv-x="686" 
d="M507 292l-451 195v106l575 -247v-107l-575 -247v106z" />
    <glyph glyph-name="lslash" unicode="&#x142;" horiz-adv-x="322" 
d="M111 541v409h99v-337l82 59v-109l-82 -59v-504h-99v432l-82 -59v109z" />
    <glyph glyph-name="Oacute" unicode="&#xd3;" horiz-adv-x="980" 
d="M543 1147h124l-152 -180h-92zM490 820c-90 0 -177 -37 -237 -104c-65 -73 -92 -169 -92 -266s27 -193 92 -266c60 -67 147 -104 237 -104s177 37 237 104c65 73 92 169 92 266s-27 193 -92 266c-60 67 -147 104 -237 104zM490 910c116 0 229 -44 308 -129
c83 -89 120 -209 120 -331s-37 -242 -120 -331c-79 -85 -192 -129 -308 -129s-229 44 -308 129c-83 89 -120 209 -120 331s37 242 120 331c79 85 192 129 308 129z" />
    <glyph glyph-name="y" unicode="y" horiz-adv-x="588" 
d="M8 585h107l181 -440l182 440h102l-365 -885h-102l130 315z" />
    <glyph glyph-name="Uring" unicode="&#x16e;" horiz-adv-x="832" 
d="M737 900v-599c0 -84 -30 -166 -90 -224c-61 -60 -145 -87 -231 -87s-171 27 -232 87c-60 58 -90 140 -90 224v599h99v-599c0 -59 21 -117 63 -159s100 -62 160 -62s118 20 160 62s62 100 62 159v599h99zM416 1177c34 0 67 -10 91 -33c24 -22 36 -55 36 -87
s-12 -64 -36 -86c-24 -23 -57 -34 -91 -34s-68 11 -92 34c-24 22 -35 54 -35 86s11 65 35 87c24 23 58 33 92 33zM416 1117c-34 0 -61 -25 -61 -60c0 -34 27 -60 61 -60s61 25 61 60c0 34 -27 60 -61 60z" />
    <glyph glyph-name="Eogonek" unicode="&#x118;" horiz-adv-x="651" 
d="M98 0v900h504v-90h-405v-315h356v-90h-356v-315h405v-90h-3l-96 -108c-21 -27 -54 -47 -54 -82c0 -43 47 -65 89 -65c30 0 62 10 78 31l57 -52c-31 -34 -85 -51 -135 -51c-44 0 -87 11 -121 38c-30 24 -47 61 -47 99c0 66 67 103 107 154l32 36h-411z" />
    <glyph glyph-name="Egrave" unicode="&#xc8;" horiz-adv-x="651" 
d="M98 0v900h504v-90h-405v-315h356v-90h-356v-315h405v-90h-504zM174 1147h124l119 -180h-92z" />
    <glyph glyph-name="Nacute" unicode="&#x143;" horiz-adv-x="875" 
d="M98 0v900h100l480 -727v727h99v-900h-100l-480 727v-727h-99zM491 1147h124l-152 -180h-92z" />
    <glyph glyph-name="cedilla" unicode="&#xb8;" horiz-adv-x="280" 
d="M103 36h73l-20 -91c38 -2 75 -13 105 -37s47 -60 47 -98s-17 -75 -47 -99c-34 -27 -77 -38 -121 -38s-88 11 -122 38c-18 15 -32 35 -40 57l75 26c10 -33 49 -49 87 -49c42 0 89 22 89 65s-47 64 -89 64h-74z" />
    <glyph glyph-name="W" unicode="W" horiz-adv-x="1092" 
d="M14 900h105l262 -752l116 332l-147 420h105l94 -270l95 270h98l-143 -411l119 -341l262 752h98l-314 -900h-100l-118 339l-118 -339h-100z" />
    <glyph glyph-name="tcaron" unicode="&#x165;" horiz-adv-x="378" 
d="M12 495v90h127v365h99v-365h127v-90h-127v-495h-99v495h-127zM482 950h103l-130 -292h-76z" />
    <glyph glyph-name="comma" unicode="," horiz-adv-x="329" 
d="M127 117h109l-138 -293h-81z" />
    <glyph glyph-name="asciitilde" unicode="~" horiz-adv-x="686" 
d="M217 276c-38 0 -62 -33 -62 -71h-99c0 43 15 86 45 116c31 30 73 45 116 45c87 0 165 -57 252 -57c38 0 63 33 63 71h99c0 -43 -16 -86 -46 -116c-31 -30 -73 -45 -116 -45c-87 0 -165 57 -252 57z" />
    <glyph glyph-name="eng" unicode="&#x14b;" 
d="M183 509c41 54 112 86 184 86c60 0 118 -24 159 -68c43 -47 62 -110 62 -174v-463c0 -53 -15 -105 -50 -144c-33 -36 -79 -56 -128 -56s-96 20 -129 56c-15 17 -27 36 -35 57l92 35c11 -30 37 -58 72 -58c54 0 79 58 79 110v463c0 39 -9 79 -34 110c-22 27 -54 42 -88 42
c-48 0 -95 -12 -132 -42c-33 -27 -52 -68 -52 -110v-353h-99v585h99v-76z" />
    <glyph glyph-name="quotesinglbase" unicode="&#x201a;" horiz-adv-x="357" 
d="M182 112h103l-129 -292h-77z" />
    <glyph glyph-name="ugrave" unicode="&#xf9;" 
d="M481 67c-35 -47 -92 -77 -153 -77c-67 0 -133 22 -181 68c-47 45 -71 109 -71 174v353h99v-353c0 -41 14 -81 43 -110s69 -42 110 -42s82 13 111 42s42 69 42 110v353h99v-585h-99v67zM151 892h124l120 -180h-92z" />
    <glyph glyph-name="O" unicode="O" horiz-adv-x="980" 
d="M490 820c-90 0 -177 -37 -237 -104c-65 -73 -92 -169 -92 -266s27 -193 92 -266c60 -67 147 -104 237 -104s177 37 237 104c65 73 92 169 92 266s-27 193 -92 266c-60 67 -147 104 -237 104zM490 910c116 0 229 -44 308 -129c83 -89 120 -209 120 -331
s-37 -242 -120 -331c-79 -85 -192 -129 -308 -129s-229 44 -308 129c-83 89 -120 209 -120 331s37 242 120 331c79 85 192 129 308 129z" />
    <glyph glyph-name="four" unicode="4" horiz-adv-x="693" 
d="M529 225v-225h-99v225h-383v100l382 575h100v-585h117v-90h-117zM430 315v424l-282 -424h282z" />
    <glyph glyph-name="ucircumflex" unicode="&#xfb;" 
d="M481 67c-35 -47 -92 -77 -153 -77c-67 0 -133 22 -181 68c-47 45 -71 109 -71 174v353h99v-353c0 -41 14 -81 43 -110s69 -42 110 -42s82 13 111 42s42 69 42 110v353h99v-585h-99v67zM328 817l-86 -105h-90l115 180h123l115 -180h-91z" />
    <glyph glyph-name="seven" unicode="7" 
d="M56 810v90h538v-100l-343 -800h-104l348 810h-439z" />
    <glyph glyph-name="uacute" unicode="&#xfa;" 
d="M481 67c-35 -47 -92 -77 -153 -77c-67 0 -133 22 -181 68c-47 45 -71 109 -71 174v353h99v-353c0 -41 14 -81 43 -110s69 -42 110 -42s82 13 111 42s42 69 42 110v353h99v-585h-99v67zM381 892h124l-152 -180h-92z" />
    <glyph glyph-name="m" unicode="m" horiz-adv-x="1015" 
d="M462 353c0 72 -37 152 -112 152c-44 0 -87 -12 -120 -42c-31 -28 -47 -69 -47 -110v-353h-99v585h99v-71c38 50 101 81 167 81c58 0 114 -24 152 -68c14 -16 25 -35 34 -54c9 19 21 38 36 54c40 44 97 68 156 68c58 0 113 -24 151 -68c42 -48 59 -111 59 -174v-353h-99
v353c0 39 -8 79 -31 110c-19 26 -48 42 -80 42c-44 0 -88 -12 -121 -42c-31 -28 -46 -69 -46 -110v-353h-99v353z" />
    <glyph glyph-name="u" unicode="u" 
d="M481 67c-35 -47 -92 -77 -153 -77c-67 0 -133 22 -181 68c-47 45 -71 109 -71 174v353h99v-353c0 -41 14 -81 43 -110s69 -42 110 -42s82 13 111 42s42 69 42 110v353h99v-585h-99v67z" />
    <glyph glyph-name="grave" unicode="`" horiz-adv-x="280" 
d="M12 900h124l120 -180h-92z" />
    <glyph glyph-name="b" unicode="b" horiz-adv-x="721" 
d="M377 -10c-79 0 -149 46 -188 109v-99h-99v950h99v-464c39 63 109 109 188 109c78 0 154 -29 207 -85c55 -58 81 -138 81 -218s-26 -159 -81 -217c-53 -56 -129 -85 -207 -85zM377 505c-52 0 -101 -21 -135 -60c-37 -42 -53 -97 -53 -153s16 -110 53 -152
c34 -39 83 -60 135 -60s102 21 136 60c37 42 53 96 53 152s-16 111 -53 153c-34 39 -84 60 -136 60z" />
    <glyph glyph-name="Abreve" unicode="&#x102;" horiz-adv-x="777" 
d="M14 0l325 900h100l324 -900h-105l-86 239h-375l-86 -239h-97zM389 1052c52 0 117 24 117 78h79c0 -44 -20 -85 -55 -113c-40 -32 -90 -45 -141 -45s-102 13 -142 45c-35 28 -55 69 -55 113h79c0 -54 66 -78 118 -78zM539 329l-155 429l-154 -429h309z" />
    <glyph glyph-name="perthousandzero" horiz-adv-x="483" 
d="M242 450c55 0 108 -22 144 -63c39 -44 56 -103 56 -162s-17 -118 -56 -162c-36 -41 -89 -63 -144 -63s-108 22 -144 63c-39 44 -56 103 -56 162s17 118 56 162c36 41 89 63 144 63zM242 360c-67 0 -101 -70 -101 -135s34 -135 101 -135s101 70 101 135s-34 135 -101 135z
" />
    <glyph glyph-name="atilde" unicode="&#xe3;" horiz-adv-x="658" 
d="M315 364c60 0 120 -20 160 -61v61c0 39 -15 77 -44 102c-32 28 -74 39 -116 39s-83 -11 -115 -39c-14 -12 -24 -28 -32 -44l-89 44c12 24 29 46 50 64c51 45 118 65 186 65s136 -20 187 -65c47 -42 72 -103 72 -166v-364h-99v51c-40 -41 -100 -61 -160 -61
c-66 0 -132 13 -186 52c-44 32 -73 81 -73 135s29 103 73 135c54 39 120 52 186 52zM253 763c-28 0 -55 -17 -55 -46h-80c0 34 13 67 38 90c26 24 61 36 97 36c44 0 81 -33 125 -33c28 0 55 17 55 46h79c0 -34 -13 -68 -38 -91c-26 -24 -60 -35 -96 -35
c-44 0 -81 33 -125 33zM315 274c-68 0 -160 -26 -160 -97s92 -97 160 -97s160 26 160 97s-92 97 -160 97z" />
    <glyph glyph-name="e" unicode="e" horiz-adv-x="693" 
d="M608 117c-12 -20 -28 -38 -46 -54c-58 -51 -135 -73 -212 -73c-79 0 -156 28 -211 85c-56 58 -83 136 -83 217s27 160 83 218c55 57 132 85 211 85s157 -28 212 -85c56 -58 83 -137 83 -218v-44h-486c7 -40 23 -78 51 -108c36 -39 87 -60 140 -60c51 0 102 14 141 48
c13 12 24 25 33 40zM542 337c-7 40 -23 78 -51 108c-36 39 -88 60 -141 60s-104 -21 -140 -60c-28 -30 -44 -68 -51 -108h383z" />
    <glyph glyph-name="caron" unicode="&#x2c7;" horiz-adv-x="294" 
d="M233 900h90l-115 -180h-123l-115 180h91l86 -105z" />
    <glyph glyph-name="Icircumflex" unicode="&#xce;" horiz-adv-x="323" 
d="M112 0v900h99v-900h-99zM162 1073l-86 -106h-91l115 180h123l115 -180h-90z" />
    <glyph glyph-name="P" unicode="P" horiz-adv-x="714" 
d="M98 0v900h269c81 0 161 -25 220 -80c57 -53 86 -129 86 -207s-29 -153 -86 -206c-59 -55 -139 -81 -220 -81h-170v-326h-99zM197 810v-394h170c55 0 109 17 149 55c39 37 58 89 58 142s-19 105 -58 142c-40 38 -94 55 -149 55h-170z" />
    <glyph glyph-name="Y" unicode="Y" horiz-adv-x="728" 
d="M8 900h113l246 -444l247 444h107l-307 -553v-347h-99v347z" />
    <glyph glyph-name="Ograve" unicode="&#xd2;" horiz-adv-x="980" 
d="M313 1147h124l120 -180h-92zM490 820c-90 0 -177 -37 -237 -104c-65 -73 -92 -169 -92 -266s27 -193 92 -266c60 -67 147 -104 237 -104s177 37 237 104c65 73 92 169 92 266s-27 193 -92 266c-60 67 -147 104 -237 104zM490 910c116 0 229 -44 308 -129
c83 -89 120 -209 120 -331s-37 -242 -120 -331c-79 -85 -192 -129 -308 -129s-229 44 -308 129c-83 89 -120 209 -120 331s37 242 120 331c79 85 192 129 308 129z" />
    <glyph glyph-name="K" unicode="K" horiz-adv-x="742" 
d="M98 900h99v-450l410 450h127l-318 -349l318 -551h-117l-272 472l-148 -161v-311h-99v900z" />
    <glyph glyph-name="circumflex" unicode="&#x2c6;" horiz-adv-x="294" 
d="M147 825l-86 -105h-91l115 180h123l115 -180h-90z" />
    <glyph glyph-name="braceleft" unicode="{" horiz-adv-x="427" 
d="M191 330c45 -42 68 -109 68 -174v-174c0 -84 74 -153 140 -190l-43 -78c-93 52 -196 150 -196 268v174c0 62 -35 124 -98 124v100c63 0 98 62 98 124v174c0 118 103 216 196 268l43 -78c-66 -37 -140 -106 -140 -190v-174c0 -65 -23 -132 -68 -174z" />
    <glyph glyph-name="Yacute" unicode="&#xdd;" horiz-adv-x="728" 
d="M8 900h113l246 -444l247 444h107l-307 -553v-347h-99v347zM417 1147h124l-152 -180h-91z" />
    <glyph glyph-name="asciicircum" unicode="^" horiz-adv-x="756" 
d="M378 790l-217 -430h-111l273 540h111l273 -540h-111z" />
    <glyph glyph-name="S" unicode="S" horiz-adv-x="728" 
d="M527 714c-22 63 -91 106 -166 106c-47 0 -94 -11 -128 -43c-33 -30 -46 -74 -46 -119c0 -64 53 -114 117 -132l184 -54c103 -29 179 -117 179 -223c0 -72 -26 -143 -81 -190c-62 -52 -144 -69 -225 -69c-80 0 -158 22 -219 73c-34 29 -59 65 -73 106l94 32
c9 -29 26 -55 50 -74c41 -34 94 -47 148 -47s110 11 152 45c37 30 55 76 55 124c0 63 -44 116 -105 133l-184 54c-106 30 -191 115 -191 222c0 69 21 138 72 185c54 50 128 67 201 67c72 0 145 -22 198 -71c28 -26 48 -58 61 -94z" />
    <glyph glyph-name="guilsinglleft" unicode="&#x2039;" horiz-adv-x="385" 
d="M171 292l152 -292h-108l-153 292l153 293h108z" />
    <glyph glyph-name="c" unicode="c" horiz-adv-x="669" 
d="M624 178c-14 -38 -34 -73 -63 -103c-55 -57 -133 -85 -212 -85s-156 28 -211 85c-56 58 -82 136 -82 217s26 160 82 218c55 57 132 85 211 85s157 -28 212 -85c29 -30 49 -65 63 -103l-93 -33c-9 26 -23 50 -42 71c-36 39 -87 60 -140 60s-103 -21 -139 -60
c-38 -41 -55 -97 -55 -153s17 -111 55 -152c36 -39 86 -60 139 -60s104 21 140 60c19 21 33 45 42 71z" />
    <glyph glyph-name="Ccaron" unicode="&#x10c;" horiz-adv-x="945" 
d="M881 250c-19 -48 -47 -92 -83 -131c-79 -85 -192 -129 -308 -129s-229 44 -308 129c-83 89 -120 209 -120 331s37 242 120 331c79 85 192 129 308 129s229 -44 308 -129c36 -39 64 -83 83 -131l-92 -37c-15 38 -35 72 -62 103c-60 67 -147 104 -237 104
s-177 -37 -237 -104c-65 -73 -92 -169 -92 -266s27 -193 92 -266c60 -67 147 -104 237 -104s177 37 237 104c27 31 47 65 62 103zM576 1147h91l-116 -180h-122l-116 180h91l86 -105z" />
    <glyph glyph-name="Q" unicode="Q" horiz-adv-x="980" 
d="M490 820c-90 0 -177 -37 -237 -104c-65 -73 -92 -169 -92 -266s27 -193 92 -266c60 -67 147 -104 237 -104c66 0 131 20 184 57l-133 137h127l72 -74c55 70 79 160 79 250c0 97 -27 193 -92 266c-60 67 -147 104 -237 104zM490 910c116 0 229 -44 308 -129
c83 -89 120 -209 120 -331c0 -117 -34 -233 -110 -321l124 -129h-127l-65 68c-72 -51 -160 -78 -250 -78c-116 0 -229 44 -308 129c-83 89 -120 209 -120 331s37 242 120 331c79 85 192 129 308 129z" />
    <glyph glyph-name="t" unicode="t" horiz-adv-x="378" 
d="M12 495v90h127v365h99v-365h127v-90h-127v-495h-99v495h-127z" />
    <glyph glyph-name="hungarumlaut" unicode="&#x2dd;" horiz-adv-x="294" 
d="M-23 720l109 180h121l-141 -180h-89zM295 900h121l-141 -180h-90z" />
    <glyph glyph-name="parenleft" unicode="(" horiz-adv-x="385" 
d="M327 -296c-57 40 -102 104 -140 168c-82 139 -125 297 -125 458s43 319 125 458c38 64 83 128 140 168l50 -69c-53 -33 -91 -98 -123 -160c-62 -123 -93 -259 -93 -397s31 -274 93 -397c32 -62 70 -127 123 -160z" />
    <glyph glyph-name="Zdotaccent" unicode="&#x17b;" horiz-adv-x="714" 
d="M34 810v90h647v-100l-538 -710h538v-90h-647v100l538 710h-538zM291 1036c0 38 28 66 66 66s67 -28 67 -66s-29 -67 -67 -67s-66 29 -66 67z" />
    <glyph glyph-name="Iacute" unicode="&#xcd;" horiz-adv-x="323" 
d="M112 0v900h99v-900h-99zM214 1147h124l-151 -180h-92z" />
    <glyph glyph-name="egrave" unicode="&#xe8;" horiz-adv-x="693" 
d="M608 117c-12 -20 -28 -38 -46 -54c-58 -51 -135 -73 -212 -73c-79 0 -156 28 -211 85c-56 58 -83 136 -83 217s27 160 83 218c55 57 132 85 211 85s157 -28 212 -85c56 -58 83 -137 83 -218v-44h-486c7 -40 23 -78 51 -108c36 -39 87 -60 140 -60c51 0 102 14 141 48
c13 12 24 25 33 40zM174 892h124l119 -180h-92zM542 337c-7 40 -23 78 -51 108c-36 39 -88 60 -141 60s-104 -21 -140 -60c-28 -30 -44 -68 -51 -108h383z" />
    <glyph glyph-name="ffi" unicode="&#xfb03;" horiz-adv-x="973" 
d="M39 495v90h109v185c0 49 12 99 44 137c28 34 71 53 115 53c57 0 106 -34 132 -79l-84 -47c-9 19 -26 36 -48 36c-44 0 -60 -58 -60 -100v-185h229v142c0 61 17 122 58 168c38 42 92 65 149 65s111 -23 149 -65c21 -24 36 -52 45 -82l-94 -29c-13 45 -49 86 -100 86
c-31 0 -59 -16 -78 -40c-22 -29 -30 -66 -30 -103v-142h315v-585h-99v495h-216v-495h-99v495h-229v-495h-99v495h-109z" />
    <glyph glyph-name="section" unicode="&#xa7;" 
d="M328 435c-40 0 -80 -11 -110 -38c-28 -24 -43 -60 -43 -97s15 -73 43 -97c30 -27 70 -38 110 -38s81 11 111 38c28 24 42 60 42 97s-14 73 -42 97c-30 27 -71 38 -111 38zM202 498c-68 27 -126 94 -126 174c0 64 24 127 71 171c49 46 114 67 181 67s133 -21 182 -67
c12 -11 21 -23 30 -36l-81 -54c-25 41 -77 67 -131 67c-41 0 -81 -13 -110 -41s-43 -67 -43 -107s14 -78 43 -106s69 -41 110 -41c66 0 133 -19 182 -63c46 -41 70 -100 70 -162s-24 -121 -70 -162c-17 -15 -36 -28 -56 -37c20 -8 39 -19 56 -32c44 -34 70 -85 70 -141
c0 -64 -23 -128 -70 -172c-49 -46 -115 -66 -182 -66s-132 20 -181 66c-12 11 -22 24 -31 37l81 55c25 -41 77 -68 131 -68c41 0 82 13 111 41s42 67 42 107s-13 78 -42 106s-70 41 -111 41c-66 0 -132 19 -181 63c-46 41 -71 100 -71 162s25 121 71 162c17 15 35 27 55 36z
" />
    <glyph glyph-name="Scedilla" unicode="&#x15e;" horiz-adv-x="728" 
d="M527 714c-22 63 -91 106 -166 106c-47 0 -94 -11 -128 -43c-33 -30 -46 -74 -46 -119c0 -64 53 -114 117 -132l184 -54c103 -29 179 -117 179 -223c0 -72 -26 -143 -81 -190s-126 -65 -198 -68l-10 -46c38 -2 75 -13 105 -37s47 -60 47 -98s-17 -75 -47 -99
c-34 -27 -78 -38 -122 -38s-87 11 -121 38c-18 15 -32 35 -40 57l75 26c10 -33 48 -49 86 -49c42 0 90 22 90 65s-48 64 -90 64h-73l27 118c-63 7 -124 30 -173 71c-34 29 -59 65 -73 106l94 32c9 -29 26 -55 50 -74c41 -34 94 -47 148 -47s110 11 152 45
c37 30 55 76 55 124c0 63 -44 116 -105 133l-184 54c-106 30 -191 115 -191 222c0 69 21 138 72 185c54 50 128 67 201 67c72 0 145 -22 198 -71c28 -26 48 -58 61 -94z" />
    <glyph glyph-name="Ohungarumlaut" unicode="&#x150;" horiz-adv-x="980" 
d="M320 967l110 180h120l-141 -180h-89zM638 1147h121l-141 -180h-89zM490 820c-90 0 -177 -37 -237 -104c-65 -73 -92 -169 -92 -266s27 -193 92 -266c60 -67 147 -104 237 -104s177 37 237 104c65 73 92 169 92 266s-27 193 -92 266c-60 67 -147 104 -237 104zM490 910
c116 0 229 -44 308 -129c83 -89 120 -209 120 -331s-37 -242 -120 -331c-79 -85 -192 -129 -308 -129s-229 44 -308 129c-83 89 -120 209 -120 331s37 242 120 331c79 85 192 129 308 129z" />
    <glyph glyph-name="k" unicode="k" horiz-adv-x="609" 
d="M90 950h99v-647l279 282h126l-238 -241l238 -344h-124l-187 270l-94 -94v-176h-99v950z" />
    <glyph glyph-name="thorn" unicode="&#xfe;" horiz-adv-x="714" 
d="M371 -10c-79 0 -149 46 -188 109v-399h-99v1200h99v-414c39 63 109 109 188 109c78 0 154 -29 207 -85c55 -58 81 -138 81 -218s-26 -159 -81 -217c-53 -56 -129 -85 -207 -85zM371 505c-52 0 -101 -21 -135 -60c-37 -42 -53 -97 -53 -153s16 -110 53 -152
c34 -39 83 -60 135 -60s102 21 136 60c37 42 53 96 53 152s-16 111 -53 153c-34 39 -84 60 -136 60z" />
    <glyph glyph-name="semicolon" unicode=";" horiz-adv-x="336" 
d="M119 117h109l-138 -293h-81zM109 521c0 37 27 64 64 64s65 -27 65 -64s-28 -65 -65 -65s-64 28 -64 65z" />
    <glyph glyph-name="N" unicode="N" horiz-adv-x="875" 
d="M98 0v900h100l480 -727v727h99v-900h-100l-480 727v-727h-99z" />
    <glyph glyph-name="Aacute" unicode="&#xc1;" horiz-adv-x="777" 
d="M14 0l325 900h100l324 -900h-105l-86 239h-375l-86 -239h-97zM441 1147h124l-151 -180h-92zM539 329l-155 429l-154 -429h309z" />
    <glyph glyph-name="Udieresis" unicode="&#xdc;" horiz-adv-x="832" 
d="M737 900v-599c0 -84 -30 -166 -90 -224c-61 -60 -145 -87 -231 -87s-171 27 -232 87c-60 58 -90 140 -90 224v599h99v-599c0 -59 21 -117 63 -159s100 -62 160 -62s118 20 160 62s62 100 62 159v599h99zM223 1036c0 38 29 66 67 66s67 -28 67 -66s-29 -67 -67 -67
s-67 29 -67 67zM474 1036c0 38 29 66 67 66s67 -28 67 -66s-29 -67 -67 -67s-67 29 -67 67z" />
    <glyph glyph-name="sterling" unicode="&#xa3;" horiz-adv-x="672" 
d="M390 820c-89 0 -131 -100 -131 -185v-140h267v-90h-267v-135c0 -68 -24 -137 -72 -180h433v-90h-567v90c33 0 60 22 77 50c23 39 30 85 30 130v135h-107v90h107v140c0 72 19 143 65 198c41 49 101 77 165 77s125 -28 166 -77c22 -26 37 -55 47 -87l-93 -31
c-16 53 -59 105 -120 105z" />
    <glyph glyph-name="d" unicode="d" horiz-adv-x="721" 
d="M343 595c79 0 150 -46 189 -109v464h99v-950h-99v99c-39 -63 -110 -109 -189 -109c-78 0 -153 29 -206 85c-55 58 -81 137 -81 217s26 160 81 218c53 56 128 85 206 85zM343 505c-52 0 -101 -21 -135 -60c-37 -42 -53 -97 -53 -153s16 -110 53 -152
c34 -39 83 -60 135 -60s102 21 136 60c37 42 53 96 53 152s-16 111 -53 153c-34 39 -84 60 -136 60z" />
    <glyph glyph-name="quotedblbase" unicode="&#x201e;" horiz-adv-x="644" 
d="M106 -180l102 292h103l-129 -292h-76zM449 112h103l-129 -292h-76z" />
    <glyph glyph-name="Z" unicode="Z" horiz-adv-x="714" 
d="M34 810v90h647v-100l-538 -710h538v-90h-647v100l538 710h-538z" />
    <glyph glyph-name="Zcaron" unicode="&#x17d;" horiz-adv-x="714" 
d="M34 810v90h647v-100l-538 -710h538v-90h-647v100l538 710h-538zM443 1147h91l-115 -180h-123l-115 180h90l86 -105z" />
    <glyph glyph-name="Edieresis" unicode="&#xcb;" horiz-adv-x="651" 
d="M98 0v900h504v-90h-405v-315h356v-90h-356v-315h405v-90h-504zM158 1036c0 38 29 66 67 66s67 -28 67 -66s-29 -67 -67 -67s-67 29 -67 67zM409 1036c0 38 29 66 67 66s67 -28 67 -66s-29 -67 -67 -67s-67 29 -67 67z" />
    <glyph glyph-name="udieresis" unicode="&#xfc;" 
d="M481 67c-35 -47 -92 -77 -153 -77c-67 0 -133 22 -181 68c-47 45 -71 109 -71 174v353h99v-353c0 -41 14 -81 43 -110s69 -42 110 -42s82 13 111 42s42 69 42 110v353h99v-585h-99v67zM136 780c0 38 29 67 67 67s67 -29 67 -67s-29 -67 -67 -67s-67 29 -67 67zM387 780
c0 38 29 67 67 67s66 -29 66 -67s-28 -67 -66 -67s-67 29 -67 67z" />
    <glyph glyph-name="eogonek" unicode="&#x119;" horiz-adv-x="693" 
d="M608 117c-12 -20 -28 -38 -46 -54c-53 -47 -121 -69 -191 -73l-88 -98c-21 -27 -54 -47 -54 -82c0 -43 47 -65 89 -65c30 0 62 10 78 31l57 -52c-31 -34 -85 -51 -135 -51c-44 0 -87 11 -121 38c-30 24 -47 61 -47 99c0 66 67 103 107 154l29 32c-56 11 -107 38 -147 79
c-56 58 -83 136 -83 217s27 160 83 218c55 57 132 85 211 85s157 -28 212 -85c56 -58 83 -137 83 -218v-44h-486c7 -40 23 -78 51 -108c36 -39 87 -60 140 -60c51 0 102 14 141 48c13 12 24 25 33 40zM542 337c-7 40 -23 78 -51 108c-36 39 -88 60 -141 60
s-104 -21 -140 -60c-28 -30 -44 -68 -51 -108h383z" />
    <glyph glyph-name="ij" unicode="&#x133;" horiz-adv-x="644" 
d="M126 585h99v-585h-99v585zM560 585v-695c0 -54 -19 -107 -58 -144c-40 -38 -93 -56 -148 -56s-109 18 -149 56c-17 16 -31 36 -40 57l90 40c15 -37 54 -63 99 -63c29 0 57 10 77 31c21 21 30 50 30 79v695h99zM448 781c0 38 29 67 67 67s67 -29 67 -67s-29 -67 -67 -67
s-67 29 -67 67zM105 781c0 38 29 67 67 67s67 -29 67 -67s-29 -67 -67 -67s-67 29 -67 67z" />
    <glyph glyph-name="space" unicode=" " horiz-adv-x="420" 
 />
    </font>
</defs>
</svg>
